<?xml version="1.0" encoding="utf-8"?>
<!-- Generator: Adobe Illustrator 23.0.1, SVG Export Plug-In . SVG Version: 6.00 Build 0)  -->
<svg version="1.1" id="OBJECTS" xmlns="http://www.w3.org/2000/svg" xmlns:xlink="http://www.w3.org/1999/xlink" x="0px" y="0px"
	 viewBox="0 0 349.6738892 424.9603882" style="enable-background:new 0 0 349.6738892 424.9603882;" xml:space="preserve">
<style type="text/css">
	.st0{fill:none;stroke:#AAC3F3;stroke-width:6.0558701;stroke-linecap:round;stroke-linejoin:round;stroke-miterlimit:10;}
	.st1{fill:none;stroke:#2979E2;stroke-width:6.0558701;stroke-linecap:round;stroke-linejoin:round;stroke-miterlimit:10;}
	.st2{fill:#FFFFFF;}
	.st3{fill:#589BF9;}
	.st4{fill:#2979E2;}
	.st5{fill:none;stroke:#2979E2;stroke-width:0.733349;stroke-linecap:round;stroke-linejoin:round;stroke-miterlimit:10;}
	.st6{fill:#D69C3F;}
	.st7{fill:#5BC6B6;}
	.st8{enable-background:new    ;}
	.st9{fill:#197F3B;}
	.st10{fill:none;stroke:#197F3B;stroke-miterlimit:10;}
	.st11{fill:#D65151;}
	.st12{fill:#702303;}
	.st13{fill:#913A3A;}
	.st14{fill:#FFC361;}
	.st15{fill:#AAC3F3;}
	.st16{fill:none;stroke:#5BC6B6;stroke-width:6.0558701;stroke-linecap:round;stroke-linejoin:round;stroke-miterlimit:10;}
	.st17{fill:none;stroke:#FFC361;stroke-width:6.0558701;stroke-linecap:round;stroke-linejoin:round;stroke-miterlimit:10;}
</style>
<g>
	<path class="st0" d="M86.7008438,95.5534744c-9.3537979-78.149498,82.3530045-115.9102936,136.2539063-77.1593018
		c9.338501,6.7137012,17.2248993,16.2246017,22.5142059,27.854599"/>
	<path class="st1" d="M324.8094482,218.2063751C277.2083435,170.1335754,99.4835434,202.3509827,86.7008438,95.5534744"/>
</g>
<g>
	<path class="st2" d="M205.7787476,362.0803833c-19.8800049,0-41.7899933,38.8800049-56.6999969,39.2402039H31.6987495
		c14.9099998-0.360199,36.8200035-39.2402039,56.7000008-39.2402039H205.7787476z"/>
	<path class="st3" d="M238.8687439,419.6803894h-97.2399902l7.4499969-18.3598022
		c14.9100037-0.360199,36.8199921-39.2402039,56.6999969-39.2402039c6.3600006,0,11.5100098,2.8100891,15.6900024,7.1800842
		h0.0099945C236.2587433,384.70047,238.8687439,419.6803894,238.8687439,419.6803894z"/>
	<polygon class="st4" points="149.0787506,401.3205872 141.6287537,419.6803894 24.2487507,419.6803894 31.6987495,401.3205872 	"/>
	<path class="st3" d="M329.6787415,419.6803894h-90.8099976c0,0,16.6300049-34.7398987,24.1799927-43.4399109
		c4.0200195-4.6300049,8.4400024-6.730011,12.6200256-6.980011c5.8899841-0.3399963,11.3099976,3.0200195,14.4799805,8.1800232
		c5.4200134,8.8199768,10.5800171,19.3099976,19.0400085,27.6599731c4.5,4.4400024,9.6900024,6.5100098,14.1900024,8.1900024
		L329.6787415,419.6803894z"/>
	<path class="st2" d="M275.6687622,369.2604675c-4.1800232,0.25-8.6000061,2.3500061-12.6200256,6.980011
		c-7.5499878,8.7000122-24.1799927,43.4399109-24.1799927,43.4399109s-2.6100006-34.9799194-17.3899994-50.4199219H275.6687622z"/>
	<line class="st5" x1="221.4787445" y1="369.2604675" x2="221.46875" y2="369.2604675"/>
	<path class="st6" d="M334.988739,422.3205872c0,0.7298889-0.2999878,1.389801-0.769989,1.8697815
		c-0.480011,0.4700012-1.1400146,0.7700195-1.8699951,0.7700195H18.6687489c-1.4599991,0-2.6399994-1.1799011-2.6399994-2.639801
		c0-0.7301025,0.3000011-1.3901978,0.7700005-1.8702087c0.4799995-0.4699097,1.1399994-0.769989,1.8699989-0.769989h313.6799927
		C333.8087463,419.6803894,334.988739,420.8604736,334.988739,422.3205872z"/>
	<g>
		<path class="st7" d="M193.0687561,363.6442871c-2.509613,0.4830933-4.853714,1.5610046-7.0493164,2.8153992
			c-2.2030029,1.2570801-4.2402954,2.7886963-6.1148987,4.4884949c-1.8757019,1.6990967-3.576004,3.5846863-5.2525024,5.5054016
			c-1.6828003,1.9119873-3.3332825,3.8576965-5.0426941,5.7583923c-1.7203064,1.8894043-3.4799957,3.7509155-5.3549042,5.4986877
			c-1.8544006,1.7657166-3.826889,3.4232178-5.950592,4.867218c-2.0917053,1.4930115-4.4095001,2.6538086-6.7870026,3.6047058
			c-2.4091034,0.9086914-4.9570923,1.34198-7.4980927,1.5138855c2.5345917-0.2915955,5.0337982-0.8407898,7.3670959-1.8479919
			c2.3194885-1.0082092,4.5694885-2.2029114,6.5942993-3.7326965c4.1178894-2.9577026,7.6989899-6.6053162,11.0856018-10.3947144
			c1.7176971-1.8771057,3.3841858-3.8071899,5.0877991-5.7092896c1.6998901-1.8977966,3.4122925-3.821991,5.3789978-5.4841003
			C183.4037476,367.2006836,187.998642,364.4657898,193.0687561,363.6442871z"/>
	</g>
	<g>
		<path class="st7" d="M182.0887451,363.6442871c-2.496109,0.4400024-4.8435974,1.4589844-7.0413971,2.6687927
			c-2.213501,1.196991-4.2593079,2.6842957-6.1501007,4.3352966c-1.8977966,1.6459961-3.5867004,3.5140991-5.2949982,5.3803101
			c-1.7009125,1.8685913-3.3814087,3.7627869-5.1105042,5.6168823c-3.4774017,3.6793213-7.1307983,7.260498-11.3164063,10.1740112
			c-2.1021881,1.4394836-4.3482971,2.6654968-6.699295,3.6437988c-2.3903961,0.8923035-4.8908997,1.4361877-7.4172974,1.6097107
			c2.5184021-0.2932129,4.9671936-0.9519043,7.2807007-1.9414978c2.2926941-1.034729,4.4748993-2.2962036,6.5108948-3.7732239
			c4.0626068-2.9692993,7.6828003-6.5072937,11.1071014-10.2138977c1.7380981-1.8313904,3.4326935-3.7080994,5.1540985-5.5664063
			c1.7292023-1.8406982,3.4331055-3.7493896,5.4210052-5.3566895
			C172.4334412,366.9884644,177.0493469,364.3768921,182.0887451,363.6442871z"/>
	</g>
	<g>
		<path class="st7" d="M171.1087494,363.6442871c-2.4835052,0.3993835-4.83461,1.3611755-7.0353088,2.5281982
			c-2.2127991,1.157196-4.2841949,2.5749817-6.1819916,4.1922913c-1.8986969,1.6181946-3.6222076,3.4207153-5.3246002,5.267395
			l-5.0857086,5.560791c-3.4472961,3.6566162-7.0128021,7.2578125-11.0892944,10.2580261
			c-2.0626984,1.4565735-4.2086029,2.8165894-6.5330963,3.8237915c-2.337204,0.9671021-4.8006058,1.6156006-7.3099976,1.8078003
			c2.4996948-0.3120117,4.9050903-1.0730896,7.1620026-2.1347046c2.2627869-1.060791,4.3470001-2.4559021,6.3435974-3.9487915
			c1.9695892-1.535614,3.8508911-3.183197,5.6594849-4.9121094c1.789505-1.75,3.5340118-3.5472107,5.2318115-5.3937988
			l5.1337891-5.5149841c1.7242126-1.8225098,3.4689026-3.6711121,5.4547119-5.2467041
			C161.4625397,366.7875671,166.096756,364.289978,171.1087494,363.6442871z"/>
	</g>
	<g>
		<path class="st7" d="M160.1287537,363.6442871c-2.5019989,0.3635864-4.8822021,1.2887878-7.110611,2.4315796
			c-2.2406006,1.1316223-4.3415985,2.5292969-6.2691956,4.131012c-1.9290009,1.6028137-3.6804962,3.3934937-5.4151001,5.2312927
			l-5.2019043,5.5086975c-3.536499,3.6083984-7.1528931,7.1848145-11.2382965,10.209198
			c-2.0561981,1.4815063-4.1766052,2.9055176-6.4967041,3.9548035c-2.3121948,1.0440063-4.7650986,1.8085022-7.2881927,2.0291138
			c2.5110931-0.3405151,4.8995972-1.2148132,7.1313934-2.3518982c2.2579041-1.1014099,4.3200989-2.5619202,6.3133011-4.0819092
			c3.9706039-3.0834961,7.5651016-6.6286926,11.0513992-10.2680054l5.2474976-5.4603882
			c1.7532043-1.8101196,3.5295105-3.650116,5.5447998-5.2084961
			C150.3836365,366.6559753,155.0804443,364.2130737,160.1287537,363.6442871z"/>
	</g>
	<g>
		<path class="st7" d="M149.1487427,363.6442871c-2.4918976,0.3267822-4.8768005,1.1981812-7.1098938,2.3013916
			c-2.245697,1.0896912-4.3565979,2.4454041-6.2993011,4.0053101c-1.9445038,1.5630798-3.721405,3.3022766-5.4560089,5.1214905
			l-5.2073975,5.4429932c-3.5373917,3.5660095-7.1042938,7.1434937-11.1170959,10.2113953
			c-1.9963989,1.5381165-4.0944977,2.9649048-6.3542023,4.0988159c-2.2565002,1.1186829-4.6673965,1.9936829-7.1760941,2.247406
			c2.4938965-0.3734131,4.8338928-1.355011,7.0086975-2.5649109c1.1091003-0.5736084,2.1393967-1.2850037,3.1875-1.9606934
			c1.0046005-0.7438965,2.0293961-1.4571228,2.9856949-2.2643127c3.9013062-3.1282959,7.4514999-6.6795959,10.940506-10.2786865
			l5.2546997-5.3964233c1.7525024-1.7910767,3.5617981-3.5856934,5.5892029-5.1005859
			C139.4092407,366.4763794,144.1199493,364.128479,149.1487427,363.6442871z"/>
	</g>
	<g>
		<path class="st7" d="M138.1687469,363.6442871c-2.5046082,0.2930908-4.913208,1.1255798-7.1692963,2.2025757
			c-2.2689056,1.0621033-4.4054031,2.3940125-6.3753052,3.9337158c-1.9721985,1.5440979-3.7780991,3.2611084-5.5323944,5.0772095
			l-5.2974091,5.3948975c-3.5929947,3.5365906-7.2199936,7.0698853-11.2186966,10.1763916
			c-1.9860001,1.5647888-4.0886993,2.9938965-6.3042984,4.2199097c-2.2255936,1.1878052-4.6059036,2.1922913-7.1225967,2.4909973
			c2.4980927-0.4182129,4.8013916-1.5254211,6.9461975-2.8034973c2.1552963-1.2770996,4.2008057-2.7418213,6.1296005-4.348999
			c3.8929977-3.1714172,7.5057983-6.6819153,11.051796-10.2528076l5.3426971-5.346405
			c1.7687073-1.7846069,3.6135025-3.5625916,5.6664047-5.055603
			C128.3522491,366.3412781,133.1150513,364.0544739,138.1687469,363.6442871z"/>
	</g>
	<g>
		<path class="st7" d="M127.1887512,363.6442871c-2.4856033,0.2540894-4.8841095,1.0409851-7.1386032,2.0663757
			c-2.2649994,1.015625-4.4036026,2.2983093-6.3831024,3.7868042c-1.9838028,1.4925232-3.8107986,3.1502075-5.5512009,4.9454041
			l-5.2569962,5.3325195c-3.5410995,3.5213013-7.1107025,7.037384-10.9764023,10.2278748
			c-1.9430008,1.5808105-3.9627991,3.0765076-6.1035995,4.3851013c-2.1473007,1.2780151-4.4696045,2.3706055-6.9500961,2.7516174
			c2.4578934-0.5001221,4.6953964-1.6902161,6.7605972-3.0563965c2.0803986-1.3583069,4.044899-2.8899231,5.9306946-4.5126038
			c3.7639008-3.2574158,7.3220062-6.7532959,10.819603-10.3124084l5.3066025-5.288208
			c1.756897-1.7662048,3.6287994-3.4889832,5.690094-4.9266968
			C117.4194412,366.1522827,122.1756439,363.9729919,127.1887512,363.6442871z"/>
	</g>
	<g>
		<path class="st7" d="M116.2087479,363.6442871c-2.4568024,0.2111816-4.8297043,0.9615784-7.0759964,1.9205933
			c-2.2511063,0.9635925-4.3833084,2.1889038-6.3664093,3.6156921c-0.9966965,0.7084045-1.9362946,1.4887085-2.8768005,2.268219
			c-0.9040985,0.822998-1.8111954,1.6347961-2.6746979,2.5148926c-1.7490005,1.7272034-3.4611969,3.4954834-5.1790924,5.259491
			c-3.4680023,3.4953918-6.9128036,7.0314941-10.6227036,10.2958984c-1.8691025,1.6143188-3.7827988,3.1845093-5.8294983,4.5776062
			c-2.0695038,1.3360901-4.2830048,2.5669861-6.714798,3.0433044c2.4038925-0.5945129,4.525795-1.9174194,6.5100937-3.3381042
			c1.9853973-1.4406128,3.8453979-3.0469971,5.6576004-4.7026978c3.6099014-3.331604,7.0484009-6.8522949,10.4764023-10.388916
			c1.7341003-1.7489929,3.4642944-3.5040894,5.2353973-5.2219849c1.7662964-1.7198181,3.620697-3.403595,5.6964035-4.7680054
			C106.5311432,365.9497681,111.2589417,363.8922729,116.2087479,363.6442871z"/>
	</g>
	<g>
		<path class="st7" d="M105.2287521,363.6442871c-2.4103088,0.1694031-4.7421036,0.8747864-6.9629059,1.7640991
			c-2.2257996,0.8937988-4.3362045,2.0552063-6.314003,3.4020996c-3.9598007,2.7043762-7.2459946,6.2539063-10.5769958,9.7332764
			c-3.3507004,3.4639282-6.5968018,7.0394287-10.0762024,10.3998108c-1.7448959,1.6721191-3.5213013,3.3212891-5.4468918,4.7955017
			c-1.9340019,1.4350891-4.0050049,2.8153992-6.3630028,3.4009094c2.323597-0.702301,4.2939987-2.1664124,6.1397972-3.6819153
			c1.8615952-1.5177917,3.5848999-3.2023926,5.2734985-4.915802c3.3805008-3.4264832,6.6272964-6.9936829,9.9429016-10.5040894
			c3.3705978-3.4320068,6.6894989-7.0357971,10.7954941-9.6950073
			C95.711647,365.7280884,100.3781433,363.8145752,105.2287521,363.6442871z"/>
	</g>
	<g>
		<path class="st7" d="M94.2487488,363.6442871c-2.4298019,0.1389771-4.7878036,0.8180847-7.0353012,1.6869812
			c-2.2540054,0.8683167-4.3968048,2.0095215-6.3988037,3.3515015c-4.0225983,2.6719971-7.3473969,6.2387085-10.7834015,9.6690979
			c-3.4505997,3.4168091-6.8239975,6.91922-10.3808975,10.2434082c-1.7775002,1.6614075-3.593399,3.2882996-5.5065002,4.8001099
			c-1.9316978,1.464386-3.9454994,2.9361877-6.2750931,3.6777039c2.2868958-0.855011,4.2015953-2.4082031,6.0486946-3.9562073
			c1.853302-1.5585938,3.6184006-3.2232056,5.3428001-4.9291077c3.4636002-3.3966064,6.8378983-6.8912964,10.2519989-10.3526917
			c1.723999-1.7144165,3.460701-3.4179077,5.2304001-5.0895996c1.7982025-1.655304,3.6903992-3.2286072,5.7657013-4.5334167
			C84.6331482,365.6154785,89.3636475,363.7573853,94.2487488,363.6442871z"/>
	</g>
	<g>
		<path class="st7" d="M266.7487488,369.2368774c-1.0569153-0.0195923-2.0697937,0.3384094-3.0299072,0.7311096
			c-0.9614868,0.4091797-1.8747864,0.9259949-2.7423096,1.5075989c-1.7511902,1.1409912-3.3531799,2.4990845-4.8656921,3.9425049
			c-1.5070953,1.4507751-2.9423981,2.9849854-4.2628937,4.5935974c-0.6417999,0.8222961-1.2621918,1.6647034-1.868103,2.5150757
			c-0.5680084,0.8791199-1.1810913,1.7270203-1.7120056,2.6307068c-2.2395935,3.5411072-4.1587982,7.2832031-5.9756012,11.0697021
			c-0.9066925,1.8950195-1.7774811,3.8088074-2.6024933,5.7430115c-0.8525085,1.9231873-1.646698,3.8714905-2.4262085,5.8280945
			c1.2722168-4.0172119,2.8088074-7.9496155,4.5163116-11.8070984c1.7187958-3.8525085,3.6540985-7.6152039,5.8672028-11.2225037
			c0.5454865-0.906189,1.1761932-1.7608032,1.7600861-2.6431885c0.6235046-0.8564148,1.2619019-1.7044067,1.923111-2.5331116
			c1.3759003-1.6239014,2.8105011-3.1795044,4.3981934-4.5855103c1.5778046-1.4105835,3.2408905-2.7390747,5.0593109-3.8347778
			c0.9100037-0.5436096,1.8638916-1.0198059,2.860199-1.3839111
			C264.6386414,369.4341736,265.6917419,369.1375732,266.7487488,369.2368774z"/>
	</g>
	<g>
		<path class="st7" d="M258.8287354,369.2368774c-1.5506897,0.0338135-2.9922943,0.6875916-4.3276978,1.406311
			c-1.3450928,0.7296753-2.5887909,1.6355896-3.7745972,2.6016846c-2.3585968,1.9443054-4.5641937,4.1192932-6.5146027,6.4669189
			c-1.967392,2.3450928-3.6495972,4.928894-5.2436981,7.5593872c-1.5917053,2.6354065-3.0576935,5.350708-4.5056,8.0820923
			c1.1724091-2.8614807,2.517807-5.6524048,4.0175018-8.3648987c1.5048981-2.7088013,3.2080994-5.3175964,5.1674957-7.7434998
			c2.0418091-2.3599854,4.2509003-4.552002,6.7332153-6.4425964c1.2484894-0.9281921,2.5497894-1.7984924,3.9570923-2.4771118
			c0.7137909-0.3163757,1.4324951-0.6237793,2.1880951-0.822876
			C257.2734375,369.2988892,258.0565491,369.14328,258.8287354,369.2368774z"/>
	</g>
	<g>
		<path class="st7" d="M250.9087524,369.2368774c-1.1114044,0.019989-2.1642151,0.411499-3.1546173,0.8642883
			c-0.990097,0.4653015-1.9523926,0.9944153-2.8456879,1.6329041c-1.8059998,1.2411194-3.4945068,2.65802-5.061203,4.2025146
			c-1.5906982,1.5206909-3.1314087,3.1022034-4.5129089,4.8117981c-1.4079895,1.6918945-2.6616974,3.5149841-3.9207916,5.3450012
			c0.9835052-1.9920959,2.131897-3.9070129,3.4611053-5.7044067c1.3372955-1.7947083,2.873291-3.4222107,4.4715881-4.9764099
			c1.6314087-1.5187988,3.3401031-2.9837952,5.2649994-4.1413879c0.9496002-0.5939026,1.9649048-1.0898132,3.0111084-1.4921875
			C248.6761475,369.4240723,249.7934418,369.0951843,250.9087524,369.2368774z"/>
	</g>
	<g>
		<path class="st7" d="M242.9887543,369.2368774c-0.7580109,0.0231934-1.4837189,0.2388916-2.1785126,0.5032959
			c-0.7006073,0.2525024-1.3695984,0.5873108-2.023407,0.9417114c-1.2967987,0.735199-2.5205994,1.5933838-3.7016907,2.5090027
			c-1.1800079,0.9181824-2.3112946,1.9043884-3.4136963,2.9254761c-1.1221008,0.9959106-2.1673126,2.0960999-3.338501,3.0635071
			c0.3540955-0.6885986,0.8580017-1.2731018,1.3605957-1.8330994c0.5084991-0.5639038,0.9924011-1.1531982,1.5388031-1.6836853
			c1.0639954-1.0877991,2.1941986-2.1180115,3.4102936-3.0453186c1.2190094-0.9190979,2.4978027-1.7829895,3.9026031-2.4137878
			C239.9324493,369.5889893,241.45784,369.0441895,242.9887543,369.2368774z"/>
	</g>
	<g>
		<path class="st7" d="M235.0687561,369.2368774c-0.9472198,0.0830994-1.8138123,0.4371948-2.6626129,0.7898865
			c-0.8415985,0.3772278-1.668396,0.7901001-2.460907,1.2727051c-1.6121979,0.9203186-3.1251984,2.0119934-4.73909,3.0296021
			c0.6219025-0.7218933,1.2940979-1.4013062,2.0273895-2.0115051c0.7340088-0.6091919,1.5137024-1.1670837,2.3431091-1.6514893
			c0.8265991-0.4858093,1.709198-0.8917847,2.6338959-1.1748047
			C233.1267548,369.2129822,234.1229401,369.0333862,235.0687561,369.2368774z"/>
	</g>
</g>
<g class="st8">
	<g>
		<path class="st4" d="M81.3911438,287.5297852l-0.2703934,0.4205933c-0.1351013,0.2554016-0.285408,0.4804993-0.4506073,0.7059021
			c-0.1651993,0.2102966-0.3303909,0.4205933-0.5105972,0.6007996c-0.1952972,0.1802063-0.3755035,0.3453979-0.5707016,0.495697
			c-0.2102966,0.1350098-0.4206009,0.2702942-0.6308975,0.3904114c-0.2253036,0.1049805-0.4355011,0.1951904-0.6609039,0.2703857
			c-0.2251968,0.0751953-0.4354935,0.1351013-0.6606979,0.1651917c-0.2253952,0.0301208-0.4356995,0.0449219-0.6608963,0.0449219
			c-0.2253036,0-0.4356003-0.014801-0.6609039-0.059906c-0.0299988,0-0.0450974-0.0151062-0.0750961-0.0151062
			c-0.0149994,0-0.0450058-0.0149841-0.0601044-0.0149841c-0.0299988,0-0.0449982-0.0150146-0.0750961-0.0150146
			c-0.0149994,0-0.045105-0.0148926-0.0601044-0.0148926l-39.2005959-8.9066162
			c0.2403984,0.0449219,0.4957008,0.0599976,0.7360001,0.0750122c0.2553978,0,0.5256996-0.0300903,0.7809982-0.0750122
			c0.2553024-0.045105,0.510601-0.1049805,0.7660027-0.1951904c0.2552986-0.09021,0.5105972-0.1953125,0.780899-0.3304138
			c0.2553978-0.1503906,0.4957008-0.3004761,0.7360992-0.4806824c0.2402039-0.1802979,0.4655991-0.3755188,0.6758003-0.600708
			c0.2103004-0.2103882,0.4206009-0.450592,0.6007996-0.7210083c0.1951981-0.2554016,0.3754997-0.5406799,0.5556984-0.8409729
			l7.209301-11.5350037l29.0776024,8.9065857l1.8473969,9.4172058c0.0599976,0.3453979,0.1501007,0.6907959,0.2402039,1.0061035
			c0.1051941,0.3303833,0.2254028,0.6457825,0.3604965,0.9311829
			C81.2709427,287.2894897,81.3310471,287.409668,81.3911438,287.5297852z"/>
	</g>
	<g>
		<path class="st4" d="M123.2502441,292.8916626c0,0.1804199,0,0.3604126-0.0150986,0.5258179
			c-0.0149994,0.1802063-0.0299988,0.3453979-0.0601044,0.5105896c-0.0750961,0.3905029-0.1801987,0.7510071-0.300293,1.096405
			c-0.1202011,0.3456116-0.2854004,0.6608887-0.4656067,0.9461975c-0.1802979,0.2853088-0.3754959,0.5556946-0.6158981,0.7961121
			c-0.2251968,0.2252808-0.4955978,0.450592-0.7809982,0.6307068c-0.2854004,0.1953735-0.5707016,0.3455811-0.8560028,0.4806824
			c-0.3003998,0.1203003-0.5858002,0.2102966-0.8712006,0.2853088c-0.3003998,0.0600891-0.5858002,0.1051941-0.8710938,0.1051941
			c-0.3003998,0-0.5858002-0.0150146-0.8861008-0.0751038c-0.0150986,0-0.030098,0-0.0450974-0.0151062h-0.0601044
			c-0.0299988-0.0149841-0.0450974-0.0149841-0.0601044-0.0149841c-0.0299988-0.0150146-0.0449982-0.0150146-0.0600967-0.0150146
			l-32.1264954-7.6596985c0.3454971,0.059906,0.6909943,0.0899963,1.0363998,0.0750122
			c0.3453979,0,0.6908951-0.045105,1.036293-0.1351929c0.3454056-0.0751038,0.6909027-0.1952209,1.0364075-0.3453979
			c0.3303986-0.1653137,0.6758957-0.3454285,1.0212936-0.585907c0.3455048-0.2252197,0.6458054-0.4806213,0.9312057-0.7658997
			c0.2702942-0.3005066,0.5256958-0.6158142,0.7358932-0.9763184c0.2253113-0.3453979,0.4056015-0.7208862,0.5558014-1.1413879
			c0.1651993-0.4056091,0.2853012-0.8562927,0.3755035-1.3218079c0.0300064-0.1951904,0.0600052-0.4054871,0.0750961-0.6007996
			c0.0149994-0.210083,0.0299072-0.4205933,0.0299072-0.6456909c0-0.2253113-0.0149078-0.4507141-0.0299072-0.6758118
			c-0.0300903-0.2254944-0.0601959-0.4656982-0.1051941-0.7060852l-0.6909027-3.5746155l-0.6307983-3.2590942l-1.5170059-7.9302979
			l-5.3167953-27.6055908l-4.2204971-21.8832092c-0.045105-0.3305969-0.1201019-0.6459045-0.2102051-0.9463959
			c-0.0902023-0.3153992-0.2102966-0.6006012-0.3304977-0.871109c-0.1351013-0.2703857-0.2854004-0.525589-0.4505997-0.7659912
			c-0.1801987-0.2402954-0.360405-0.4654999-0.5707016-0.6609039c-0.1201019-0.1051025-0.225296-0.2100983-0.3303986-0.300293
			c-0.1052017-0.09021-0.2103043-0.1652069-0.3154984-0.2553101c-0.0149994,0-0.0149994-0.0149994-0.0298996-0.0149994
			c-0.0752029-0.0600891-0.1653061-0.1203003-0.2404022-0.16539l32.9375,20.411499
			c0.0750961,0.0450897,0.1352997,0.0901947,0.2102966,0.1351929c0.0751038,0.045105,0.1352005,0.1049957,0.2103043,0.1501007
			c0.0600967,0.0601959,0.1352005,0.1203003,0.1952972,0.1804047c0.0751038,0.0448914,0.1351013,0.1051025,0.1951981,0.1800995
			c0.1803055,0.1652985,0.3455048,0.3603973,0.4956055,0.5558929c0.1502991,0.2100983,0.2854004,0.4204102,0.3904953,0.6457062
			c0.1202011,0.2402039,0.2103043,0.4806976,0.2854004,0.7359009c0.0901031,0.2552032,0.1502075,0.5108032,0.1952972,0.7960968
			l10.9942017,53.529007c0.0449982,0.1954041,0.0751038,0.3905029,0.0901031,0.585907
			C123.2351456,292.531189,123.2502441,292.7115784,123.2502441,292.8916626z"/>
	</g>
	<g>
		<polygon class="st4" points="77.9666443,271.7144775 78.7627487,275.7997742 49.6851463,266.8931885 		"/>
	</g>
	<g>
		<path class="st3" d="M91.9798431,283.3695679c-0.0300903-0.2254944-0.0601959-0.4656982-0.1051941-0.7060852l-0.6909027-3.5746155
			l-0.6307983-3.2590942l-1.5170059-7.9302979l-5.3167953-27.6055908l-4.2204971-21.8832092
			c-0.045105-0.3305969-0.1201019-0.6459045-0.2102051-0.9463959c-0.0902023-0.3153992-0.2102966-0.6006012-0.3304977-0.871109
			c-0.1351013-0.2703857-0.2854004-0.525589-0.4505997-0.7659912c-0.1801987-0.2402954-0.360405-0.4654999-0.5707016-0.6609039
			c-0.1201019-0.1051025-0.225296-0.2100983-0.3303986-0.300293c-0.1052017-0.09021-0.2103043-0.1652069-0.3154984-0.2553101
			c-0.0149994,0-0.0149994-0.0149994-0.0298996-0.0149994c-0.0752029-0.0600891-0.1653061-0.1203003-0.2404022-0.16539
			c-0.1501007-0.105011-0.3153992-0.1950073-0.4805984-0.2702026c-0.240303-0.1203003-0.4957047-0.225296-0.7659988-0.3003082
			c-0.270401-0.0751953-0.5407028-0.1352997-0.8261032-0.16539c-0.0449982-0.0149994-0.0901031-0.0301056-0.1351013-0.0301056
			c-0.0450974-0.0149994-0.0900955-0.0149994-0.1352005-0.0298004c-0.0449982,0-0.0900955-0.0150909-0.1202011-0.0150909
			c-0.0449982-0.0150146-0.0900955-0.0150146-0.1350937-0.0301056c-0.2554016-0.0299988-0.4957047-0.0299988-0.7510071-0.0299988
			c-0.255394,0.0149994-0.495697,0.0450897-0.7509995,0.0899963c-0.255394,0.045105-0.4955978,0.1051941-0.7509003,0.1954041
			c-0.255394,0.0901031-0.495697,0.1950989-0.7509995,0.3303986c-0.3003998,0.1501923-0.5858002,0.3303986-0.8560944,0.5106049
			c-0.2553024,0.1952972-0.5257034,0.4205933-0.7660065,0.6459961c-0.2402954,0.240097-0.4655991,0.4954987-0.6908951,0.7659912
			c-0.2102051,0.285202-0.4204941,0.5855103-0.6007996,0.9011078l-34.8300018,56.6081848
			c-0.0750008,0.1650085-0.1501999,0.3153076-0.2101974,0.4804993c-0.0750999,0.1502075-0.1352005,0.3003235-0.1803017,0.4655151
			c-0.0600014,0.1503906-0.1050987,0.3003845-0.1501007,0.4656982c-0.0450974,0.1502075-0.0751991,0.300293-0.1202011,0.4507141
			c-0.0600967,0.3754883-0.1051979,0.7359009-0.1351967,1.0812988c-0.0151024,0.3454895,0,0.6908875,0.0299988,1.0061951
			c0.0451012,0.3303833,0.1051979,0.6609802,0.1953011,0.9613037c0.0900993,0.3154907,0.2103004,0.6157837,0.3605003,0.9010925
			c0.1500969,0.2854919,0.3303986,0.5408936,0.5405998,0.7810059c0.2102966,0.240387,0.4655991,0.4506836,0.7360001,0.6308899
			c0.2852974,0.1802979,0.5856972,0.3304138,0.9312973,0.4505005c0.2703018,0.1051941,0.5706024,0.1954041,0.9011002,0.2554016
			c0,0,0.0149994,0.0149841,0.0300026,0.0149841l0.1200981,0.0301208c0.0301018,0,0.0601997,0.0149841,0.0901985,0.0149841
			c0.0150032,0,0.0150032,0,0.0300026,0c0.2403984,0.0449219,0.4957008,0.0599976,0.7360001,0.0750122
			c0.2553978,0,0.5256996-0.0300903,0.7809982-0.0750122c0.2553024-0.045105,0.510601-0.1049805,0.7660027-0.1951904
			c0.2552986-0.09021,0.5105972-0.1953125,0.780899-0.3304138c0.2553978-0.1503906,0.4957008-0.3004761,0.7360992-0.4806824
			c0.2402039-0.1802979,0.4655991-0.3755188,0.6758003-0.600708c0.2103004-0.2103882,0.4206009-0.450592,0.6007996-0.7210083
			c0.1951981-0.2554016,0.3754997-0.5406799,0.5556984-0.8409729l7.209301-11.5350037l28.281498,4.8212891l0.7961044,4.0852966
			l1.8473969,9.4172058c0.0599976,0.3453979,0.1501007,0.6907959,0.2402039,1.0061035
			c0.1051941,0.3303833,0.2254028,0.6457825,0.3604965,0.9311829c0.0600967,0.1352234,0.1202011,0.2554016,0.1802979,0.3755188
			c0.0901031,0.1651917,0.1801987,0.3155823,0.2703018,0.4654846c0.1651993,0.2705078,0.3454971,0.5259094,0.5558014,0.7510071
			c0.1951981,0.240509,0.4053955,0.4507141,0.6306992,0.6459045c0.2254028,0.195282,0.4655991,0.3605957,0.7059021,0.4956055
			c0.2403946,0.1502991,0.5106964,0.2703857,0.7810974,0.3754883c0.2101974,0.0751038,0.4205017,0.1353149,0.6458054,0.1803894
			c0.0600967,0.0150146,0.1351929,0.0299988,0.1951981,0.045105c0.3454971,0.059906,0.6909943,0.0899963,1.0363998,0.0750122
			c0.3453979,0,0.6908951-0.045105,1.036293-0.1351929c0.3454056-0.0751038,0.6909027-0.1952209,1.0364075-0.3453979
			c0.3303986-0.1653137,0.6758957-0.3454285,1.0212936-0.585907c0.3455048-0.2252197,0.6458054-0.4806213,0.9312057-0.7658997
			c0.2702942-0.3005066,0.5256958-0.6158142,0.7358932-0.9763184c0.2253113-0.3453979,0.4056015-0.7208862,0.5558014-1.1413879
			c0.1651993-0.4056091,0.2853012-0.8562927,0.3755035-1.3218079c0.0300064-0.1951904,0.0600052-0.4054871,0.0750961-0.6007996
			c0.0149994-0.210083,0.0299072-0.4205933,0.0299072-0.6456909
			C92.0097504,283.8200684,91.9948425,283.5946655,91.9798431,283.3695679z M56.533947,255.9739838l13.9830971-22.3338013
			l4.971405,25.3827972L56.533947,255.9739838z"/>
		<polygon class="st4" points="75.4884491,259.0229797 56.533947,255.9739838 70.5170441,233.6401825 		"/>
	</g>
	<g>
		<path class="st9" d="M70.7585449,214.4302826c2.1224976-2.115509,6.3255997-1.4983978,7.9738007,1.2262878
			c0.8543015,1.2899017,1.2605972,2.7490997,1.5740967,4.164505c0.297905,1.4140015,0.545311,2.8099976,0.8205032,4.2158966
			l3.1819992,16.8506012l3.3068085,16.8265991c0.5400925,2.8065186,1.0995941,5.609314,1.6032944,8.4229126l0.7738953,4.2167969
			c0.2616043,1.4049072,0.5575027,2.8031921,0.3353043,4.3012085c-0.7626038-1.3084106-1.0070038-2.7166138-1.2856979-4.1183167
			l-0.8471069-4.2026062c-0.577095-2.7993774-1.0981979-5.6095886-1.6387939-8.4159851l-3.1773987-16.8514099l-3.302002-16.827301
			l-0.8082047-4.2021942c-0.2751007-1.3675995-0.6436005-2.7216034-1.3598938-3.838501
			c-0.7086029-1.1282959-1.822403-1.8585968-3.1410065-2.1607056
			C73.4753494,213.7267761,72.044548,213.7578735,70.7585449,214.4302826z"/>
	</g>
	<g>
		<path class="st9" d="M73.5456467,249.1036835c-0.6221008-1.2163086-0.9700012-2.4862061-1.2517014-3.7690125l-0.8171921-3.8540955
			l-1.4828033-7.737793l0.9748001,0.1803894c-1.0907059,1.7290039-2.2125015,3.4387054-3.271904,5.1873016l-3.2156982,5.2225037
			l-3.2462997,5.2035065l-1.6679001,2.5735931c-0.5821991,0.841507-0.9791985,1.7989044-2.0681992,2.3231049
			c-0.004303-1.2086029,0.6835976-1.9840088,1.1862984-2.8751984l1.5867043-2.6245117l3.2627945-5.1929932l3.2934036-5.173996
			c1.1102982-1.7168121,2.1582947-3.4726105,3.2371979-5.2091064l0.7101974-1.1428986l0.264801,1.3233032l1.5458984,7.7256012
			l0.6971054,3.877594C73.5061493,246.4352722,73.6630478,247.7426758,73.5456467,249.1036835z"/>
	</g>
	<polyline class="st10" points="56.533947,268.0606689 77.9666443,271.7144775 80.6101456,285.21698 	"/>
	<g>
		<path class="st9" d="M104.0061417,231.1533813c2.224205,0.8417969,4.2352066,2.0274963,6.2246094,3.2480927l-0.106308-0.0502014
			c0.4625015,0.207901,0.6099014,0.4069977,0.8446045,0.6399078c0.2101974,0.2267914,0.3760986,0.469101,0.5357971,0.7133942
			c0.3105011,0.4915009,0.5457001,1.0050049,0.7590027,1.5223083c0.4134979,1.0358887,0.6828995,2.1093903,0.8973999,3.1703949
			l1.2717972,6.2832947c0.8508987,4.1883087,1.646904,8.3877106,2.5494003,12.5654907l2.6334,12.5481262
			c0.441597,2.0907898,0.8599014,4.1864014,1.2593002,6.2858887l0.6110001,3.1467896
			c0.2118988,1.0473022,0.3880005,2.1018066,0.1483002,3.2416992c-0.6696014-0.9530945-0.9234009-1.9917908-1.1414032-3.0377808
			l-0.6787949-3.1328125c-0.4603043-2.0870056-0.9019012-4.1777954-1.3200989-6.273407l-2.5257034-12.570282
			c-0.8171997-4.1952057-1.7408981-8.368515-2.6095963-12.5531006l-1.3078003-6.2759094
			c-0.2187042-1.0301971-0.4668045-2.0372925-0.8172989-2.9989929c-0.183403-0.4736023-0.3862076-0.939209-0.6383057-1.3572083
			c-0.1278992-0.2050018-0.2611008-0.4082947-0.4117966-0.5762024c-0.1228943-0.158493-0.3658981-0.3453979-0.3919983-0.3604889
			l-0.1066055-0.0503082C107.7066422,234.0437775,105.7498474,232.7705841,104.0061417,231.1533813z"/>
	</g>
	<g>
		<path class="st9" d="M52.3835449,267.3532715c-0.5161972,0.3132019-0.9816971,0.3291016-1.4347954,0.2723083
			c-0.4551048-0.045105-0.9081039-0.1028137-1.3592033-0.1712036l0.5783005-0.2593994
			c-0.450901,0.7503052-0.9538994,1.4681091-1.4333,2.200592c-0.4836998,0.7299194-0.9454994,1.4732971-1.3905983,2.2272034
			c-0.4504013,0.7507019-0.8756027,1.5170898-1.3429031,2.2571106c-0.2304001,0.3721924-0.4760971,0.7345886-0.7245979,1.0953064
			l-0.3820992,0.5352783c-0.1200027,0.1831055-0.3052025,0.3253174-0.7758026,0.2893066
			c-0.2385979-0.407196-0.1918983-0.6361084-0.0798988-0.8240967l0.3137016-0.5780029
			c0.2152977-0.3815002,0.4334984-0.7612,0.6669998-1.1314087c0.4604988-0.7442017,0.9629974-1.4624023,1.440403-2.1960754
			c0.4825974-0.7304993,0.948494-1.4715271,1.3925972-2.2260132c0.4484024-0.7518921,0.8731995-1.5184937,1.3499985-2.2526855
			l0.2134018-0.3286133l0.3651962,0.0690918c0.4483032,0.0848999,0.8948059,0.180603,1.3390999,0.2886963
			C51.5663452,266.7173767,52.0003471,266.8865662,52.3835449,267.3532715z"/>
	</g>
</g>
<g>
	<g>
		<path class="st11" d="M290.6537476,242.4807739c-1.1455078-1.8036041-2.6087952-3.1192932-4.3670044-3.9700012
			c-0.7940063-0.3743896-1.5879822-0.6806946-2.3933105-0.9187927c1.8489075-1.2250061,3.2781067-2.7449036,4.2650146-4.5258026
			c1.0888062-1.9622955,1.6445923-4.1287994,1.6445923-6.5222015c0.0114136-4.4803925-1.1001892-7.690506-3.3121033-9.6754913
			c-2.2005005-1.9737091-5.5693054-2.6542053-10.0950928-2.019104l-17.8084106,2.506897
			c-1.2250061,0.1701965-2.2572021,0.7713928-3.0738983,1.7693939c-0.8279877,1.009613-1.2363892,2.1666107-1.2363892,3.4937134
			v1.8487854l-0.0227051,8.1103058l-0.0339966,15.0292969l-0.0113068,8.6886139l-0.0226898,10.4014893
			c0,1.3272095,0.4083099,2.3819885,1.2362976,3.1531982c0.8166962,0.7713928,1.8376007,1.0776978,3.0626068,0.9075012
			l17.604187-2.4726868c1.7467957-0.2495117,3.550293-0.7147217,5.4446106-1.4178162
			c1.8829041-0.6921082,3.6410828-1.7468872,5.2970886-3.1419983c1.6560974-1.4065857,2.9945068-3.2442017,4.0040894-5.5239868
			c1.020813-2.280014,1.5312195-5.1043091,1.5426025-8.4506073
			C292.3779297,246.7003784,291.7994385,244.2729797,290.6537476,242.4807739z M263.4421387,229.4591827l0.0114136-3.7886047
			l11.6604919-1.6333008c1.6447144-0.238205,2.9718933,0.0792999,3.9927063,0.9299927
			c1.009491,0.8508148,1.5085754,2.359314,1.5085754,4.5486145c-0.0113831,1.8260956-0.5557861,3.3007965-1.6333923,4.4123993
			c-1.0888977,1.1228943-2.3139038,1.780899-3.6864014,1.973587l-11.8646851,1.6674042L263.4421387,229.4591827z
			 M281.2732544,256.9202881c-1.2817078,1.4178772-3.0059204,2.2799988-5.1724243,2.5861816l-12.7153931,1.7808228
			l0.0114136-8.6887207l0.0112915-6.022995l12.2276917-1.7241058c0.9868164-0.1360931,2.0643921-0.1588898,3.2554016-0.0679932
			c1.179718,0.0906982,2.1777954,0.5785065,3.039917,1.4745026c0.839386,0.8959961,1.2590942,2.4954987,1.2590942,4.7753906
			C283.178833,253.5287781,282.5436401,255.4910736,281.2732544,256.9202881z"/>
		<path class="st12" d="M280.6153259,229.5158844c-0.0113831,1.8260956-0.5557861,3.3007965-1.6333923,4.4123993
			c-1.0888977,1.1228943-2.3139038,1.780899-3.6864014,1.973587l-11.8646851,1.6674042l0.0112915-8.1100922l0.0114136-3.7886047
			l11.6604919-1.6333008c1.6447144-0.238205,2.9718933,0.0792999,3.9927063,0.9299927
			C280.1162415,225.8180847,280.6153259,227.3265839,280.6153259,229.5158844z"/>
		<path class="st12" d="M283.1902466,251.033371c-0.0114136,2.4954071-0.6466064,4.4577026-1.9169922,5.8869171
			c-1.2817078,1.4178772-3.0059204,2.2799988-5.1724243,2.5861816l-12.7153931,1.7808228l0.0114136-8.6887207l0.0112915-6.022995
			l12.2276917-1.7241058c0.9868164-0.1360931,2.0643921-0.1588898,3.2554016-0.0679932
			c1.179718,0.0906982,2.1777954,0.5785065,3.039917,1.4745026
			C282.7705383,247.1539764,283.1902466,248.753479,283.1902466,251.033371z"/>
	</g>
	<g>
		<path class="st12" d="M284.6534424,215.6434784c-0.4764099-0.2268982-0.9981995-0.4197083-1.5540161-0.5671082
			c-0.0566711-0.0226898-0.1133728-0.0453949-0.1701965-0.0566864c-0.1019897-0.0227051-0.2041016-0.0454102-0.3174744-0.0681
			c-0.1929016-0.0568085-0.4084167-0.0908051-0.6239014-0.1249084c-0.1473999-0.033905-0.3063049-0.0565948-0.4651184-0.0679932
			c-0.170105-0.033905-0.351593-0.0566101-0.5444031-0.0679016c-0.2268982-0.0227966-0.4537964-0.0341034-0.6918945-0.0455017
			c-1.1796875-0.0567017-2.4728088,0.0113983-3.8905945,0.2041016l-12.4772034,1.758194l-5.3312073,0.748703
			c-0.181488,0.0225983-0.3630066,0.0565948-0.5330811,0.1134033c-0.1361084,0.0226898-0.2723083,0.0681-0.3970032,0.1134033
			c-0.1248169,0.0340881-0.2496033,0.0906982-0.3630066,0.1474915c-0.0227051,0-0.0452881,0.0113068-0.0679932,0.0227051
			c-0.1134033,0.0567017-0.2268982,0.1134033-0.32901,0.1815033c-0.1134033,0.0565948-0.2154846,0.1247864-0.3175964,0.2041931
			c-0.1361084,0.0906067-0.2835999,0.1927948-0.4082947,0.3175049c-0.0114136,0.0113983-0.0341187,0.0113983-0.0454102,0.0340881
			c-0.0112915,0.0113068-0.0339966,0.0226135-0.0454102,0.033905c-0.0452881,0.0341034-0.0793762,0.0794983-0.1019897,0.1136017
			c-0.0567932,0.0339966-0.0907898,0.0681-0.1134949,0.102005c-0.0793915,0.0679932-0.1475067,0.1474915-0.2154999,0.2268982
			c-0.0453949,0.0453033-0.0906982,0.1020966-0.1361084,0.1586914c-0.0566864,0.0681-0.1133881,0.1475983-0.1700897,0.227005
			c-0.0341034,0.033905-0.0681,0.0792999-0.1020966,0.1246948c-0.0908051,0.1361084-0.1815033,0.2835999-0.26091,0.4197083
			c-0.0226898,0.0453033-0.0453949,0.0792999-0.0681,0.1248016c-0.0793915,0.1360931-0.1473999,0.2722015-0.2041016,0.4082947
			c-0.0340881,0.0906982-0.0681915,0.1815033-0.1020966,0.2722015c-0.0567017,0.1587982-0.1133881,0.3289948-0.158905,0.4992065
			c-0.0112915,0.0226898-0.0112915,0.0453949-0.0112915,0.0678864c-0.0339966,0.1248016-0.0681,0.2610016-0.0794067,0.3857117
			c-0.0226898,0.1362-0.0453949,0.2722015-0.0453949,0.4197998h-0.0113068v0.0452881
			c-0.0113983,0.1588135-0.0226898,0.32901-0.0226898,0.499115v1.8487854l-0.0227051,8.1103058l-0.0339966,15.0292969
			l-0.0113068,8.6886139l-0.0226898,10.4014893c0,1.3272095,0.4083099,2.3819885,1.2362976,3.1531982
			c0.2268982,0.2156067,0.4765015,0.3970947,0.7372894,0.5446167l-25.8617859-14.0652161
			c-0.2608032-0.1474915-0.4990082-0.32901-0.7259064-0.5444946c-0.8280029-0.7713013-1.2364044-1.8263092-1.2364044-3.1533051
			l0.0794067-44.0784912c0-0.1929016,0.0112915-0.3970032,0.0339966-0.5785065
			c0.0114136-0.1475067,0.0227966-0.2835999,0.0567017-0.419693c0.0453949-0.3176117,0.1362-0.6239014,0.2496033-0.918808
			c0.0453949-0.1246033,0.0906982-0.2494965,0.1474915-0.3742981c0.0567017-0.102005,0.102005-0.2042084,0.1587067-0.3063049
			c0.0113983-0.0338898,0.0341034-0.0565948,0.0455017-0.0906982c0.0794067-0.1473999,0.1814117-0.3061981,0.283493-0.4537048
			c0.0906982-0.1247864,0.170105-0.2381897,0.2722015-0.351593c0.0453949-0.0567017,0.0908051-0.1134949,0.1362-0.158905
			c0.0906982-0.1132965,0.1927948-0.2154999,0.3061981-0.3174896c0.0113068-0.0227051,0.0339966-0.0454102,0.0681-0.0566101
			c0.0225983-0.0226898,0.0453033-0.0340881,0.0680084-0.0567932c0.0112915-0.0227051,0.0226898-0.0341034,0.0339966-0.0453949
			c0.0113983-0.0227051,0.0341034-0.0341034,0.0453949-0.0341034c0.1135101-0.102005,0.2268982-0.1927032,0.3516998-0.2835999
			c0.0113068-0.0113068,0.0339966-0.0227051,0.0453033-0.0339966c0.1020966-0.0794067,0.2154999-0.1473083,0.3289032-0.2041016
			c0.1134949-0.0681,0.2268982-0.1248016,0.3403015-0.1702118c0-0.0112915,0.0113983-0.0225983,0.0226898-0.0225983
			c0.0114136-0.0112915,0.0227051-0.0112915,0.0341034-0.0112915c0.1134033-0.0568085,0.2380981-0.1022034,0.3630066-0.1475983
			c0.1246948-0.0453033,0.2608032-0.0792999,0.3968964-0.1134033c0.1701965-0.0566101,0.3516998-0.0906982,0.5330963-0.1134033
			l17.8084106-2.5066986c1.4064941-0.1929016,2.699585-0.2608948,3.8905945-0.2042999
			c0.2268982,0.0113983,0.4423981,0.0227051,0.6578979,0.0453949c0.1815033,0.0113983,0.3630066,0.0340118,0.5330963,0.0567017
			c0.1815033,0.0227051,0.3516998,0.0454102,0.5218048,0.0794067c0.2154846,0.0341034,0.4197083,0.0681915,0.6124878,0.1248016
			c0.1248169,0.0226898,0.2382202,0.0565948,0.3517151,0.0906982h0.0112c0.0455017,0,0.0794983,0.0112915,0.1249084,0.0341034
			c0.0339966,0,0.0679932,0.0112915,0.1019897,0.0226898c0.2268982,0.0567017,0.4423828,0.1361084,0.6578979,0.2154083
			c0.2948914,0.1021881,0.5784912,0.2269897,0.8620911,0.3630981c0.0567322,0.0339966,0.1020203,0.0567017,0.1588135,0.0906982
			l0.1473999,0.0681l22.2093811,12.0914917l0.3857117,0.2041016L284.6534424,215.6434784z"/>
	</g>
	<g>
		<path class="st13" d="M268.2754517,215.9937744c-0.744812,0.5583038-1.5240173,0.8715057-2.3078003,1.1524963
			c-0.7853088,0.2705994-1.5888062,0.4107056-2.3925171,0.5500031c-1.6054993,0.2922058-3.2146912,0.5578003-4.8287964,0.7893066
			l-0.0751953,0.0106964l-0.2202148-0.0077972c-0.067688-0.0023956-0.3928833,0.0271912-0.5891724,0.0962982
			c-0.2233276,0.0715942-0.4423218,0.1690979-0.6421204,0.3105927c-0.405304,0.2726135-0.7449951,0.7013092-1.0250854,1.2072144
			c-0.5407104,1.0399933-0.7980042,2.3675995-0.8554077,3.7080994c-0.1000061,2.7820892-0.0410004,5.7070923-0.016098,8.553894
			c0.0372925,2.865097,0.1222992,5.7301941,0.1114044,8.5953064c0.0033875,1.4324951-0.0310059,2.8649902-0.0705109,4.2975922
			l-0.0792999,2.1490021c-0.0151978,0.7162933-0.1849976,1.4326019-1.0074921,2.1499939
			c-0.8225098-0.7154999-0.9922028-1.4317932-1.0075073-2.1483002l-0.0792999-2.1495972
			c-0.0393982-1.4328918-0.0737915-2.8659973-0.0704041-4.298996c-0.0109863-2.8661957,0.0741119-5.7322083,0.1114044-8.5982971
			l0.0409088-4.2989044c0.0187988-1.4510956-0.0497131-2.8258057-0.0026093-4.3395996
			c0.0604095-1.5084991,0.2273102-3.0832062,0.9573975-4.6251984c0.7141113-1.5180054,2.2975006-3.0202026,4.4967194-2.8735046
			l-0.2950134,0.0028992c1.6152039-0.222702,3.2352905-0.4113007,4.8591003-0.5731964
			c0.8109131-0.0879059,1.6220093-0.1748047,2.4513855-0.1313934
			C266.5701294,215.5762787,267.4055481,215.6624756,268.2754517,215.9937744z"/>
	</g>
	<g>
		<path class="st13" d="M228.3525391,243.4609833c0.600708,1.6017914,0.4841003,3.2036896,0.5402985,4.8054962
			c0.0476074,1.6017914,0.0209198,3.203598,0.014801,4.8054047l-0.0000916,0.0155945l-0.0037994,0.0498047
			c-0.0193024,0.2527924,0.0552979,0.6822968,0.2016907,1.0076904c0.1459045,0.345108,0.3579102,0.6710052,0.6172028,0.9656067
			c0.5460052,0.5945892,1.2082977,1.0037994,2.0113983,1.4272919l4.6750031,2.5027161
			c1.5673981,0.817688,3.1224976,1.6578979,4.6763,2.5003967l2.3052063,1.3104858
			c0.7397919,0.4897156,1.639389,0.6853027,2.0775909,1.7293091c-1.114502,0.1994934-1.7675934-0.4493103-2.5805969-0.8042908
			l-2.3529968-1.2228088c-1.5516968-0.846405-3.1020966-1.6951904-4.6401978-2.5664978l-4.6416016-2.564209
			c-0.7615051-0.3872986-1.6430969-0.8952026-2.3008118-1.6091919c-0.6556854-0.739212-1.1838989-1.6233063-1.1507874-2.8070068
			l-0.0037994,0.0651093c-0.0061035-1.6018066-0.0328064-3.2036133,0.014801-4.8054047
			C227.8683472,246.6646729,227.7517548,245.0627747,228.3525391,243.4609833z"/>
	</g>
	<g>
		<path class="st13" d="M289.4415283,222.5037842c-0.7978821-0.9401093-1.2633972-1.6494141-1.7085876-2.4367065
			c-0.4468994-0.7711029-1.0203857-1.4597015-1.6549988-2.0890045c-0.6465149-0.621994-1.3746033-1.1703033-2.1545105-1.6629028
			c-0.3869019-0.25-0.8105774-0.453598-1.2145996-0.6861877l-1.2937927-0.5753021l-0.137085-0.0608978l-0.0073242-0.0042114
			c-1.3938904-0.7704926-2.762085-1.5882874-4.1811829-2.3126984c-1.4071045-0.7460938-2.818512-1.4845886-4.2409058-2.2028961
			c-1.4223938-0.7180939-2.8291931-1.4649963-4.2137146-2.2528992c-0.6900635-0.3979034-1.3796997-0.7967072-2.0555725-1.2207031
			c-0.6473083-0.476593-1.5150146-0.5480957-1.5952148-2.066803c1.3187256-0.7575989,1.8500977-0.0679932,2.6018066,0.2167053
			c0.7230835,0.3372955,1.4324951,0.6996002,2.1413879,1.0630035c1.4136047,0.7342987,2.8048096,1.5097961,4.1805115,2.3139954
			c1.3756104,0.8041992,2.7622986,1.5881042,4.1531067,2.3643036c1.3789978,0.7980042,2.8088989,1.5023956,4.2129822,2.254303
			l-0.1439819-0.0648041l1.4949951,0.5737c0.4815979,0.2422028,0.9808044,0.4483948,1.4490051,0.726593
			c0.9421997,0.5443115,1.8371887,1.2041016,2.6127014,2.0070038c0.7651978,0.8121948,1.4073792,1.7525024,1.854187,2.7845001
			C289.9820557,220.1829834,290.1412354,221.431076,289.4415283,222.5037842z"/>
	</g>
</g>
<g>
	<path class="st6" d="M276.2238464,89.4553757c-0.1954956-1.0559006-0.2872009-2.0966949-0.2624207-3.1090012
		c0.0400085-1.8499985,0.4300232-3.579895,1.1700134-5.1699982c0.75-1.5998993,1.8299866-2.9899979,3.2399902-4.1900024
		c1.4101257-1.1999969,3.1500244-2.1499939,5.2201233-2.8498993c1.119873-0.3699951,2.2198792-0.6100998,3.3098755-0.7201004
		c1.1000061-0.1100006,2.1800232-0.1100006,3.2400208,0c0.9299927,0.1100006,1.7800903,0,2.5401001-0.3398972
		c0.4598999-0.2100983,0.829895-0.5,1.1099854-0.9001007c-0.0099792,0.0201035-0.0300903,0.0500031-0.0401001,0.0699997
		c-0.0098877,0.0201035-0.0198975,0.0400009-0.0400085,0.0699997c-0.0099792,0.0200043-0.019989,0.0400009-0.0298767,0.0700989
		c-0.0200195,0.0199051-0.0301208,0.0399017-0.0401001,0.0699997c-0.0100098,0.0199051-0.0299072,0.0399017-0.039917,0.0600052
		c-0.0099792,0.0298996-0.0300903,0.0498962-0.0401001,0.0699005c-0.0098877,0.0299988-0.0198975,0.0500946-0.039978,0.0699997
		c-0.0100098,0.0299988-0.0200195,0.0500946-0.0299072,0.0699997c-0.0200195,0.030098-0.0301208,0.0499954-0.0401001,0.0699997
		c-0.0100098,0.0199966-0.0299072,0.0499954-0.039917,0.0699997c-0.0101013,0.0200958-0.0300903,0.0499954-0.0401001,0.0699997
		c-0.0098877,0.0200958-0.0198975,0.0499954-0.039978,0.0700989c-0.0100098,0.0198975-0.0200195,0.0399017-0.0299072,0.0699997
		c-0.019989,0.0198975-0.0300903,0.0399017-0.0401001,0.0699997c-0.0100098,0.0198975-0.0299072,0.0399017-0.039917,0.0699005
		c-0.0101013,0.0199966-0.0300903,0.0401001-0.039978,0.0599976c-0.0100098,0.0299988-0.0200195,0.0501022-0.0401001,0.0699997
		c-0.0100098,0.0300064-0.0200195,0.0501022-0.0299072,0.0699997c-0.019989,0.0301056-0.0300903,0.0500031-0.0401001,0.0699997
		c-0.0100098,0.0301056-0.0299072,0.0500031-0.0398865,0.0699997c-0.0101013,0.0201035-0.0301208,0.0500031-0.0400085,0.0700073
		c-0.0100098,0.0200958-0.0200195,0.0499954-0.0401001,0.0700989c-0.0100098,0.0198975-0.0198975,0.0498962-0.0299072,0.0699997
		c-0.0201111,0.0198975-0.0300903,0.0398941-0.0401001,0.0699005c-0.0100098,0.0199966-0.0299072,0.0400009-0.0398865,0.0699997
		c-0.0101013,0.0199966-0.0301208,0.0401001-0.0400085,0.0699997c-0.0100098,0.0199966-0.019989,0.0401001-0.0401001,0.0599976
		c-0.0100098,0.0299988-0.0198975,0.0500031-0.0299072,0.0699997c-0.0201111,0.030098-0.0300903,0.0500031-0.0401001,0.0699997
		c-0.0098877,0.030098-0.0299072,0.0500031-0.0400085,0.0699997c-0.0099792,0.0299988-0.0299988,0.0500031-0.0398865,0.0699997
		c-0.0100098,0.0200043-0.019989,0.0500031-0.0401001,0.0700989c-0.0100098,0.0199051-0.0198975,0.0499039-0.0299072,0.0699997
		c-0.0200806,0.0199051-0.0300903,0.0500031-0.0401001,0.0699005c-0.0098877,0.0200043-0.0299072,0.0400009-0.0400085,0.0699997
		c-0.0099792,0.0200043-0.0298767,0.0401001-0.0398865,0.0699997c-0.0100098,0.0200043-0.0201111,0.0401001-0.0401001,0.0699997
		c-0.0100098,0.0201035-0.0198975,0.0400009-0.0299072,0.0600052c-0.0200806,0.030098-0.0300903,0.0499954-0.0401001,0.0699997
		c-0.0198975,0.030098-0.0298767,0.0499954-0.039978,0.0699997c-0.0100098,0.0299988-0.0299072,0.0499954-0.039917,0.0700989
		c-0.0100098,0.0298996-0.0201111,0.0498962-0.0401001,0.0699997c-0.0098877,0.0198975-0.0198975,0.0499039-0.0299072,0.0699997
		c-0.0200806,0.0198975-0.0300903,0.0500031-0.0401001,0.0699005c-0.0198975,0.0199966-0.0298767,0.0501022-0.039978,0.0699997
		c-0.0100098,0.0199966-0.0299072,0.0401001-0.039917,0.0699997c-0.0099792,0.0200043-0.0200806,0.0401001-0.0401001,0.0699997
		c-0.0098877,0.0201035-0.0198975,0.0400009-0.0299072,0.0699997c-0.0200806,0.0201035-0.0300903,0.0400009-0.039978,0.0599976
		c-0.0200195,0.0300064-0.0301208,0.0500031-0.0401001,0.0700073c-0.0100098,0.0299988-0.0299072,0.0499954-0.039917,0.0700989
		c-0.0099792,0.0298996-0.0200806,0.0498962-0.0401001,0.0699997c-0.0098877,0.0298996-0.0198975,0.0498962-0.0298767,0.0699005
		c-0.0201111,0.0199966-0.0301208,0.0500946-0.0400085,0.0699997c-0.0200195,0.0199966-0.0301208,0.0500946-0.0401001,0.0699997
		c-0.0100098,0.0199966-0.0299072,0.0499954-0.039917,0.0699997c-0.0101013,0.0199966-0.0200806,0.0400009-0.0401001,0.0699997
		c-0.0098877,0.0200958-0.0198975,0.0400009-0.0298767,0.0699997c-0.0201111,0.0200958-0.0301208,0.0400009-0.0400085,0.0700989
		c-0.019989,0.0198975-0.0300903,0.0399017-0.0401001,0.0598984c-0.0100098,0.0299988-0.0299072,0.0500031-0.039917,0.0700989
		c-0.0101013,0.0298996-0.0200806,0.0499039-0.039978,0.0699997c-0.0100098,0.0298996-0.0200195,0.0500031-0.0401001,0.0699005
		c-0.0100098,0.0299988-0.0200195,0.0501022-0.0299072,0.0699997c-0.019989,0.0200043-0.0300903,0.0501022-0.0401001,0.0699997
		c-0.0100098,0.0200043-0.0299072,0.0500031-0.0398865,0.0699997c-0.0101013,0.0201035-0.0201111,0.0500031-0.0400085,0.0699997
		c-0.0100098,0.0201035-0.0200195,0.0400009-0.0401001,0.0700073c-0.0100098,0.0200958-0.0198975,0.0399933-0.0299072,0.0700989
		c-0.0201111,0.0198975-0.0300903,0.0398941-0.0401001,0.0699997c-0.0100098,0.0198975-0.0299072,0.0398941-0.0398865,0.0599976
		c-0.0101013,0.0298996-0.0201111,0.0499039-0.0400085,0.0699997c-0.0100098,0.0298996-0.019989,0.0500031-0.0401001,0.0699005
		c-0.0100098,0.0299988-0.0198975,0.0501022-0.0299072,0.0699997c-0.0201111,0.0299988-0.0300903,0.0500031-0.0401001,0.0699997
		c-0.0098877,0.0200043-0.0299072,0.0500031-0.0400085,0.0699997c-0.0099792,0.0201035-0.019989,0.0500031-0.0398865,0.0699997
		c-0.0100098,0.0201035-0.019989,0.0500031-0.0401001,0.0699997c-0.0100098,0.0200043-0.0198975,0.0400009-0.0299072,0.0700989
		c-0.0200806,0.0199051-0.0300903,0.0399017-0.0401001,0.0699997c-0.0098877,0.0199051-0.0299072,0.0399017-0.0400085,0.0699005
		c-0.0099792,0.0200043-0.019989,0.0400009-0.0398865,0.0600052c-0.0100098,0.0299988-0.0201111,0.0500946-0.0401001,0.0699997
		c-0.0100098,0.0299988-0.0198975,0.0500946-0.0299072,0.0699997c-0.0200806,0.030098-0.0300903,0.0499954-0.0401001,0.0699997
		c-0.0098877,0.030098-0.0298767,0.0499954-0.039978,0.0699997c-0.0100098,0.0200958-0.0200195,0.0499954-0.039917,0.0699997
		c-0.0100098,0.0200958-0.0201111,0.0499954-0.0401001,0.0700989c-0.0098877,0.0198975-0.0198975,0.0498962-0.0299072,0.0699997
		c-0.0200806,0.0198975-0.0300903,0.0399017-0.0401001,0.0699997c-0.0098877,0.0198975-0.0298767,0.0399017-0.039978,0.0699005
		c-0.0100098,0.0199966-0.0200195,0.0401001-0.039917,0.0699997c-0.0099792,0.0199966-0.0200806,0.0401001-0.0401001,0.0599976
		c-0.0098877,0.0300064-0.0198975,0.0501022-0.0299072,0.0699997c-0.0200806,0.0301056-0.0300903,0.0500031-0.039978,0.0699997
		c-0.0100098,0.0301056-0.0301208,0.0500031-0.0401001,0.0699997c-0.0100098,0.0300064-0.0299072,0.0500031-0.039917,0.0700073
		c-0.0099792,0.0200958-0.0200806,0.0499954-0.0401001,0.0700989c-0.0098877,0.0198975-0.0198975,0.0498962-0.0298767,0.0699997
		c-0.0201111,0.0198975-0.0301208,0.0498962-0.0400085,0.0699005c-0.0100098,0.0199966-0.0301208,0.0400009-0.0401001,0.0699997
		c-0.0100098,0.0199966-0.0198975,0.0401001-0.039917,0.0699997c-0.0101013,0.0199966-0.0200806,0.0401001-0.0401001,0.0699997
		c-0.0098877,0.0199966-0.0198975,0.0400009-0.0298767,0.0599976c-0.0201111,0.030098-0.0301208,0.0500031-0.0400085,0.0699997
		c-0.0100098,0.030098-0.0300903,0.0500031-0.0401001,0.0699997c-0.0100098,0.0299988-0.0299072,0.0500031-0.039917,0.0699997
		c-0.0101013,0.0299988-0.0200806,0.0500031-0.039978,0.0700989c-0.0100098,0.0199051-0.0200195,0.0499039-0.0301208,0.0699997
		c-0.019989,0.0199051-0.0299988,0.0500031-0.0398865,0.0699005c-0.0100098,0.0200043-0.0300903,0.0501022-0.0401001,0.0699997
		c-0.0100098,0.0200043-0.0299072,0.0401001-0.0398865,0.0699997c-0.0101013,0.0200043-0.0201111,0.0401001-0.0400085,0.0699997
		c-0.0100098,0.0201035-0.0200195,0.0400009-0.0301208,0.0699997c-0.019989,0.0201035-0.0298767,0.0400009-0.0398865,0.0600052
		c-0.0100098,0.030098-0.0300903,0.0499954-0.0401001,0.0699997c-0.0100098,0.0299988-0.0299072,0.0499954-0.0398865,0.0700989
		c-0.0101013,0.0298996-0.0201111,0.0498962-0.0400085,0.0699997c-0.0100098,0.0298996-0.019989,0.0499039-0.0300903,0.0699997
		c-0.0200195,0.0198975-0.0299072,0.0500031-0.039917,0.0699005c-0.0100098,0.0199966-0.0300903,0.0501022-0.0401001,0.0699997
		c-0.0098877,0.0199966-0.0299072,0.0500031-0.0400085,0.0699997c-0.0099792,0.0200043-0.019989,0.0401001-0.0398865,0.0699997
		c-0.0100098,0.0201035-0.019989,0.0400009-0.0300903,0.0699997c-0.0200195,0.0201035-0.0299072,0.0400009-0.039917,0.0699997
		c-0.0099792,0.0200043-0.0300903,0.0400009-0.0401001,0.0600052c-0.0098877,0.0299988-0.0299072,0.0499954-0.0400085,0.0700989
		c-0.0099792,0.0298996-0.019989,0.0498962-0.0398865,0.0699997c-0.0100098,0.0298996-0.0201111,0.0498962-0.0300903,0.0699005
		c-0.0200195,0.0299988-0.0299072,0.0500946-0.039917,0.0699997c-0.0099792,0.0199966-0.0300903,0.0500946-0.0401001,0.0699997
		c-0.0098877,0.0199966-0.0298767,0.0499954-0.039978,0.0699997c-0.0100098,0.0199966-0.0200195,0.0499954-0.039917,0.0699997
		c-0.0100098,0.0200958-0.0201111,0.0400009-0.0300903,0.0699997c-0.0198975,0.0200958-0.0299072,0.0400009-0.039917,0.0700989
		c-0.0101013,0.0198975-0.0300903,0.0399017-0.0401001,0.0699997c-0.0098877,0.0198975-0.0298767,0.0399017-0.039978,0.0599976
		c-0.0100098,0.0298996-0.0200195,0.0499039-0.039917,0.0699997c-0.0099792,0.0298996-0.0200806,0.0500031-0.0300903,0.0699005
		c-0.0198975,0.0299988-0.0299072,0.0501022-0.039917,0.0699997c-0.0101013,0.0300064-0.0300903,0.0501022-0.039978,0.0699997
		c-0.0100098,0.0200043-0.0301208,0.0500031-0.0401001,0.0699997c-0.0100098,0.0201035-0.0200195,0.0500031-0.039917,0.0699997
		c-0.0099792,0.0201035-0.0200806,0.0500031-0.0300903,0.0700073c-0.0198975,0.0200958-0.0299072,0.0399933-0.0398865,0.0700989
		c-0.0201111,0.0198975-0.0301208,0.0398941-0.0400085,0.0699997c-0.0100098,0.0198975-0.0301208,0.0398941-0.0401001,0.0699005
		c-0.0100098,0.0199966-0.0198975,0.0400009-0.039917,0.0600967c-0.0101013,0.0298996-0.0200806,0.0500031-0.0300903,0.0699005
		c-0.0198975,0.0299988-0.0299072,0.0501022-0.0398865,0.0699997c-0.0201111,0.0299988-0.0301208,0.0500031-0.0400085,0.0699997
		c-0.0100098,0.030098-0.0300903,0.0500031-0.0401001,0.0699997c-0.0100098,0.0201035-0.0198975,0.0500031-0.039917,0.0699997
		c-0.0101013,0.0201035-0.0200806,0.0500031-0.0300903,0.0699997c-0.0198975,0.0200043-0.0299072,0.0500031-0.0400085,0.0700989
		c-0.019989,0.0199051-0.0299988,0.0399017-0.0398865,0.0699997c-0.0100098,0.0199051-0.0300903,0.0399017-0.0401001,0.0699005
		c-0.0100098,0.0200043-0.0198975,0.0400009-0.0398865,0.0699997c-0.0101013,0.0200043-0.0201111,0.0401001-0.0301208,0.0600052
		c-0.0198975,0.0299988-0.0299072,0.0500946-0.0400085,0.0699997c-0.019989,0.030098-0.0298767,0.0499954-0.0398865,0.0699997
		c-0.0100098,0.030098-0.0300903,0.0499954-0.0401001,0.0699997c-0.0100098,0.030098-0.0198975,0.0499954-0.0398865,0.0699997
		c-0.0101013,0.0200958-0.0201111,0.0499954-0.0301208,0.0700989c-0.0198975,0.0198975-0.0298767,0.0498962-0.039978,0.0699997
		c-0.0200195,0.0198975-0.0299072,0.0499039-0.039917,0.0699997c-0.0100098,0.0198975-0.0300903,0.0399017-0.0401001,0.0699005
		c-0.0098877,0.0199966-0.0198975,0.0401001-0.0400085,0.0699997c-0.0099792,0.0199966-0.019989,0.0401001-0.0398865,0.0699997
		c-0.0100098,0.0200043-0.019989,0.0401001-0.0300903,0.0599976c-0.0200195,0.0301056-0.0299072,0.0500031-0.039917,0.0699997
		c-0.0099792,0.0301056-0.0300903,0.0500031-0.0401001,0.0699997c-0.0098877,0.0300064-0.0198975,0.0500031-0.0400085,0.0700073
		c-0.0099792,0.0299988-0.019989,0.0499954-0.0398865,0.0700989c-0.0100098,0.0198975-0.0201111,0.0498962-0.0300903,0.0699997
		c-0.0200195,0.0198975-0.0299072,0.0498962-0.039917,0.0699005c-0.0099792,0.0199966-0.0300903,0.0500946-0.0401001,0.0699997
		c-0.0098877,0.0199966-0.0198975,0.0401001-0.039978,0.0699997c-0.0100098,0.0199966-0.0200195,0.0401001-0.039917,0.0699997
		c-0.0100098,0.0199966-0.0201111,0.0400009-0.0300903,0.0699997c-0.0198975,0.0200958-0.0299072,0.0400009-0.039917,0.0599976
		c-0.0101013,0.030098-0.0300903,0.0500031-0.0401001,0.0699997c-0.0098877,0.0299988-0.0198975,0.0500031-0.039978,0.0699997
		c-0.0100098,0.0299988-0.0200195,0.0500031-0.039917,0.0700989c-0.0099792,0.0298996-0.0200806,0.0499039-0.0300903,0.0699997
		c-0.0198975,0.0199051-0.0299072,0.0500031-0.039917,0.0699005c-0.0101013,0.0200043-0.0300903,0.0501022-0.039978,0.0699997
		c-0.0100098,0.0200043-0.0200195,0.0501022-0.0401001,0.0699997c-0.0100098,0.0200043-0.0200195,0.0401001-0.039917,0.0699997
		c-0.0099792,0.0201035-0.0200806,0.0400009-0.0300903,0.0699997c-0.0198975,0.0201035-0.0299072,0.0400009-0.0398865,0.0700073
		c-0.0101013,0.0200958-0.0301208,0.0399933-0.0400085,0.0599976c-0.0100098,0.0299988-0.0200195,0.0499954-0.0401001,0.0700989
		c-0.0100098,0.0298996-0.0198975,0.0498962-0.039917,0.0699997c-0.0101013,0.0298996-0.0200806,0.0499039-0.0300903,0.0699997
		c-0.0198975,0.0298996-0.0299072,0.0500031-0.0398865,0.0699005c-0.0101013,0.0199966-0.0301208,0.0501022-0.0400085,0.0699997
		c-0.0100098,0.0199966-0.019989,0.0500031-0.0401001,0.0699997c-0.0100098,0.0200043-0.0198975,0.0500031-0.039917,0.0699997
		c-0.0101013,0.0201035-0.0200806,0.0400009-0.0300903,0.0699997c-0.0198975,0.0201035-0.0299072,0.0400009-0.0400085,0.0699997
		c-0.0099792,0.0200043-0.0299988,0.0400009-0.0398865,0.0700989c-0.0100098,0.0199051-0.019989,0.0399017-0.0401001,0.0600052
		c-0.0100098,0.0298996-0.0198975,0.0498962-0.0398865,0.0699997c-0.0101013,0.0198975-0.0201111,0.0498962-0.0301208,0.0699005
		c-0.2698975,0.5500946-0.6799927,0.9699936-1.2399902,1.2199936c-0.7000122,0.3100052-1.4798889,0.4200058-2.3399048,0.3100052
		c-0.9700928-0.0998993-1.9601135-0.0998993-2.9700928,0c-1.0100098,0.0999985-2.0198975,0.330101-3.039917,0.6699982
		C277.622345,88.7960739,276.9032288,89.1156769,276.2238464,89.4553757z"/>
	<path class="st6" d="M306.1214294,102.6964798c-0.0098877,0.0198975-0.0298767,0.0398941-0.039978,0.0599976
		c-0.0200195,0.0198975-0.0299072,0.0298996-0.039917,0.0498962c-0.0200806,0.0201035-0.0300903,0.0400009-0.0499878,0.0600052
		c-0.0100098,0.0200958-0.0301208,0.0400009-0.0401001,0.0599976c-0.0100098,0.0201035-0.0299072,0.0400009-0.039917,0.0599976
		c-0.0101013,0.0201035-0.0300903,0.0301056-0.0401001,0.0500031c-0.0198975,0.0199966-0.0298767,0.0401001-0.039978,0.0599976
		c-0.0200195,0.0200043-0.0299072,0.0401001-0.0498962,0.0600052c-0.0101013,0.0199966-0.0301208,0.0401001-0.0400085,0.0599976
		c-0.0100098,0.0199966-0.0301208,0.0299988-0.0401001,0.0501022c-0.0100098,0.0198975-0.0299072,0.0398941-0.039917,0.0599976
		c-0.0200806,0.0198975-0.0300903,0.0399017-0.0401001,0.0599976c-0.0198975,0.0199051-0.0298767,0.0399017-0.0499878,0.0600052
		c-0.0100098,0.0198975-0.0299072,0.0298996-0.0398865,0.0498962c-0.0101013,0.0201035-0.0301208,0.0400009-0.0400085,0.0599976
		c-0.0100098,0.0201035-0.0301208,0.0400009-0.0401001,0.0600052c-0.0198975,0.0200958-0.0299072,0.0400009-0.039917,0.0599976
		l-0.0499878,0.0500031c-0.0100098,0.0199966-0.0300903,0.0401001-0.0401001,0.0599976
		c-0.0100098,0.0199966-0.0299072,0.0401001-0.0398865,0.0599976c-0.0101013,0.0200043-0.0301208,0.0401001-0.0400085,0.0600052
		c-0.0200195,0.0199966-0.0301208,0.0299988-0.0401001,0.0500946c-0.0198975,0.0199051-0.0299072,0.0399017-0.0500183,0.0600052
		c-0.0099792,0.0198975-0.0299988,0.0398941-0.0398865,0.0599976c-0.0100098,0.0198975-0.0300903,0.0399017-0.0401001,0.0599976
		c-0.0100098,0.0199051-0.0299072,0.0298996-0.0398865,0.0499039c-0.0201111,0.0200958-0.0301208,0.0400009-0.0400085,0.0599976
		c-0.0200195,0.0201035-0.0301208,0.0400009-0.0501099,0.0599976c-0.0098877,0.0201035-0.0299072,0.0400009-0.0400085,0.0600052
		c-0.0099792,0.0200958-0.0299988,0.030098-0.0398865,0.0499954c-0.0100098,0.0200043-0.0300903,0.0401001-0.0401001,0.0600052
		c-0.0198975,0.0199966-0.0299072,0.0401001-0.0398865,0.0599976c-0.0201111,0.0199966-0.0301208,0.0401001-0.0500183,0.0599976
		c-0.0100098,0.0200043-0.0300903,0.0300064-0.0401001,0.0501022c-0.0098877,0.0198975-0.0299072,0.0399017-0.0400085,0.0599976
		c-0.0099792,0.0199051-0.0299988,0.0399017-0.0398865,0.0600052c-0.019989,0.0198975-0.0300903,0.0398941-0.0401001,0.0599976
		l-0.0499878,0.0499039c-0.0100098,0.0200958-0.0299072,0.0399933-0.039917,0.0599976
		c-0.0100098,0.0200958-0.0300903,0.0400009-0.0401001,0.0599976c-0.0098877,0.0201035-0.0299072,0.0400009-0.0400085,0.0599976
		c-0.019989,0.0201035-0.0299988,0.0300064-0.0398865,0.0500031c-0.019989,0.0200043-0.0300903,0.0401001-0.0501099,0.0599976
		c-0.0098877,0.0200043-0.0298767,0.0401001-0.039978,0.0600052c-0.0100098,0.0199966-0.0299072,0.0401001-0.039917,0.0599976
		c-0.0100098,0.0199966-0.0300903,0.0299988-0.0401001,0.0500031c-0.0198975,0.0199966-0.0299072,0.0400009-0.0400085,0.0600967
		c-0.019989,0.0198975-0.0299988,0.0399017-0.0498962,0.0599976c-0.0099792,0.0199051-0.0300903,0.0399017-0.0401001,0.0600052
		c-0.0098877,0.0198975-0.0298767,0.0298996-0.039978,0.0498962c-0.0100098,0.0200043-0.0299072,0.0400009-0.039917,0.0600052
		c-0.0201111,0.0200958-0.0300903,0.0399933-0.0401001,0.0599976c-0.0198975,0.0200958-0.0299072,0.0400009-0.0499878,0.0599976
		c-0.0100098,0.0201035-0.0299072,0.0299988-0.039917,0.0500031c-0.0099792,0.0199966-0.0300903,0.0400009-0.0401001,0.0599976
		c-0.0098877,0.0200043-0.0298767,0.0401001-0.039978,0.0599976c-0.0200195,0.0200043-0.0299072,0.0401001-0.039917,0.0600052
		c-0.0201111,0.0099945-0.0300903,0.030098-0.0499878,0.0499954c-0.0100098,0.0200043-0.0301208,0.0400009-0.0401001,0.0600052
		c-0.0100098,0.0199966-0.0299072,0.0400009-0.039917,0.0600967c-0.0099792,0.0198975-0.0300903,0.0399017-0.0401001,0.0599976
		c-0.0198975,0.009903-0.0298767,0.0298996-0.039978,0.0500031c-0.0200195,0.0198975-0.0299072,0.0399017-0.0499268,0.0598984
		c-0.0101013,0.0200043-0.0300903,0.0400009-0.039978,0.0600052c-0.0100098,0.0200958-0.0301208,0.0399933-0.0401001,0.0599976
		c-0.0100098,0.0101013-0.0299072,0.0299988-0.039917,0.0499954c-0.0200806,0.0201035-0.0300903,0.0400009-0.0401001,0.0600052
		c-0.0198975,0.0199966-0.0298767,0.0400009-0.0499878,0.0599976c-0.0100098,0.0200043-0.0299072,0.0401001-0.039917,0.0599976
		c-0.0101013,0.0100021-0.0300903,0.0301056-0.039978,0.0500031c-0.0100098,0.0199966-0.0301208,0.0401001-0.0401001,0.0599976
		c-0.0200195,0.0200043-0.0299072,0.0400009-0.039917,0.0600052c-0.0200806,0.0199966-0.0300903,0.0400009-0.0499878,0.0600967
		c-0.0100098,0.009903-0.0300903,0.0298996-0.0401001,0.0500031c-0.0100098,0.0198975-0.0299072,0.0398941-0.039917,0.0599976
		c-0.0101013,0.0198975-0.0300903,0.0399017-0.039978,0.0598984c-0.0200195,0.0200043-0.0301208,0.0400009-0.0401001,0.0600052
		c-0.0200195,0.0100937-0.0299072,0.0299988-0.0498962,0.0499954c-0.0101013,0.0201035-0.0301208,0.0400009-0.0400085,0.0599976
		c-0.0100098,0.0201035-0.0300903,0.0400009-0.0401001,0.0600052c-0.0100098,0.0199966-0.0299072,0.0400009-0.039917,0.0499954
		c-0.0200806,0.0200043-0.0300903,0.0401001-0.039978,0.0600052c-0.0200195,0.0199966-0.0301208,0.0401001-0.0501099,0.0599976
		c-0.0100098,0.0199966-0.0299072,0.0401001-0.0398865,0.0599976c-0.0101013,0.0200043-0.0301208,0.0400009-0.0400085,0.0501022
		c-0.0100098,0.0198975-0.0300903,0.0399017-0.0401001,0.0599976c-0.0198975,0.0199051-0.0299072,0.0399017-0.039917,0.0600052
		c-0.0200806,0.0198975-0.0300903,0.0398941-0.0499878,0.0599976c-0.0100098,0.0198975-0.0300903,0.0399017-0.0401001,0.0498962
		c-0.0100098,0.0201035-0.0299072,0.0400009-0.0398865,0.0600052c-0.0101013,0.0200958-0.0301208,0.0400009-0.0400085,0.0599976
		c-0.019989,0.0201035-0.0300903,0.0400009-0.0401001,0.0599976c-0.0198975,0.0201035-0.0299072,0.0400009-0.0500183,0.0500031
		c-0.0099792,0.0199966-0.0298767,0.0401001-0.0398865,0.0599976c-0.0100098,0.0200043-0.0300903,0.0401001-0.0401001,0.0600052
		c-0.0100098,0.0199966-0.0299072,0.0401001-0.0398865,0.0599976c-0.0201111,0.0199966-0.0301208,0.0401001-0.0400085,0.0501022
		c-0.019989,0.0198975-0.0300903,0.0398941-0.0501099,0.0599976c-0.0098877,0.0198975-0.0299072,0.0399017-0.0400085,0.0599976
		c-0.0099792,0.0199051-0.0298767,0.0399017-0.0398865,0.0600052c-0.0100098,0.0198975-0.0300903,0.0398941-0.0401001,0.0498962
		c-0.0198975,0.0201035-0.0299072,0.0400009-0.0398865,0.0599976c-0.0201111,0.0201035-0.0301208,0.0400009-0.0500183,0.0600052
		c-0.0099792,0.0200958-0.0300903,0.0400009-0.0401001,0.0599976c-0.0098877,0.0201035-0.0299072,0.030098-0.0400085,0.0500031
		c-0.0099792,0.0199966-0.0298767,0.0401001-0.0398865,0.0599976c-0.0201111,0.0199966-0.0300903,0.0401001-0.0401001,0.0599976
		c-0.0198975,0.0200043-0.0299072,0.0401001-0.0499878,0.0600052c-0.0100098,0.0199966-0.0299072,0.0299988-0.039917,0.0500946
		c-0.0099792,0.0199051-0.0300903,0.0399017-0.0401001,0.0600052c-0.0098877,0.0198975-0.0299072,0.0398941-0.0400085,0.0599976
		c-0.019989,0.0198975-0.0298767,0.0399017-0.0398865,0.0599976c-0.0201111,0.0199051-0.0300903,0.0298996-0.0501099,0.0499039
		c-0.0098877,0.0200958-0.0298767,0.0400009-0.039978,0.0599976c-0.0100098,0.0201035-0.0299072,0.0400009-0.039917,0.0599976
		c-0.0099792,0.0201035-0.0300903,0.0400009-0.0401001,0.0600052c-0.0198975,0.0200958-0.0299072,0.030098-0.0400085,0.0499954
		c-0.019989,0.0200043-0.0298767,0.0401001-0.0498962,0.0600052c-0.0101013,0.0199966-0.0300903,0.0401001-0.0401001,0.0599976
		c-0.0098877,0.0199966-0.0298767,0.0401001-0.039978,0.0599976c-0.0100098,0.0200043-0.0299072,0.0300064-0.039917,0.0501022
		c-0.0200806,0.0198975-0.0300903,0.0399017-0.0401001,0.0599976c-0.0198975,0.0199051-0.0299072,0.0399017-0.0499878,0.0600052
		c-0.0100098,0.0198975-0.0299072,0.0398941-0.039917,0.0599976c-0.0101013,0.0198975-0.0300903,0.0298996-0.0401001,0.0499039
		c-0.0098877,0.0200958-0.0298767,0.0399933-0.039978,0.0599976c-0.0200195,0.0200958-0.0299072,0.0400009-0.039917,0.0599976
		c-0.0200806,0.0201035-0.0300903,0.0400009-0.0499878,0.0599976c-0.0100098,0.0201035-0.0301208,0.0300064-0.0401001,0.0500031
		c-0.0100098,0.0200043-0.0299072,0.0401001-0.039917,0.0599976c-0.0101013,0.0200043-0.0300903,0.0401001-0.0401001,0.0600052
		c-0.0198975,0.0199966-0.0298767,0.0401001-0.039978,0.0599976c-0.0200195,0.0199966-0.0299072,0.0299988-0.0498962,0.0500031
		c-0.0101013,0.0199966-0.0301208,0.0400009-0.0400085,0.0600967c-0.0100098,0.0198975-0.0301208,0.0399017-0.0401001,0.0599976
		c-0.0100098,0.0199051-0.0299072,0.0399017-0.039917,0.0600052c-0.0200806,0.0198975-0.0300903,0.0298996-0.0401001,0.0498962
		c-0.0198975,0.0200043-0.0298767,0.0400009-0.0499878,0.0600052c-0.0100098,0.0200958-0.0299072,0.0399933-0.0398865,0.0599976
		c-0.0101013,0.0200958-0.0301208,0.0400009-0.0400085,0.0599976c-0.0100098,0.0201035-0.0301208,0.0299988-0.0401001,0.0500031
		c-0.0198975,0.0199966-0.0299072,0.0400009-0.039917,0.0599976c-0.0200806,0.0200043-0.0300903,0.0401001-0.0499878,0.0599976
		c-0.0100098,0.0200043-0.0300903,0.0401001-0.0401001,0.0600052c-0.0100098,0.0199966-0.0299072,0.030098-0.0398865,0.0499954
		c-0.0101013,0.0200043-0.0301208,0.0400009-0.0400085,0.0600052c-0.0200195,0.0199966-0.0301208,0.0400009-0.0401001,0.0600967
		c-0.0198975,0.0198975-0.0299072,0.0399017-0.0500183,0.0599976c-0.0099792,0.0199051-0.0299988,0.0298996-0.0398865,0.0500031
		c-0.0100098,0.0198975-0.0300903,0.0399017-0.0401001,0.0598984c-0.0100098,0.0200043-0.0299072,0.0400009-0.0398865,0.0600052
		c-0.0201111,0.0200958-0.0301208,0.0399933-0.0400085,0.0599976c-0.0200195,0.0200958-0.0301208,0.0299988-0.0501099,0.0499954
		c-0.0098877,0.0201035-0.0299072,0.0400009-0.0400085,0.0600052c-0.0099792,0.0199966-0.0299988,0.0400009-0.0398865,0.0599976
		c-0.0100098,0.0200043-0.0300903,0.0401001-0.0401001,0.0599976c-0.0198975,0.0200043-0.0299072,0.0301056-0.0398865,0.0500031
		c-0.0201111,0.0199966-0.0301208,0.0401001-0.0500183,0.0599976c-0.0100098,0.0200043-0.0300903,0.0400009-0.0401001,0.0600052
		c-0.0098877,0.0199966-0.0299072,0.0400009-0.0400085,0.0600967c-0.0099792,0.0198975-0.0299988,0.0298996-0.0398865,0.0500031
		c-0.019989,0.0198975-0.0300903,0.0398941-0.0401001,0.0599976c-0.0198975,0.0198975-0.0299072,0.0399017-0.0499878,0.0598984
		c-0.0100098,0.0200043-0.0299072,0.0400009-0.039917,0.0600052c-0.0100098,0.0200958-0.0300903,0.0299988-0.0401001,0.0499954
		c-0.0098877,0.0201035-0.0299072,0.0400009-0.0400085,0.0599976c-0.019989,0.0201035-0.0299988,0.0400009-0.0398865,0.0600052
		c-0.019989,0.0199966-0.0300903,0.0400009-0.0501099,0.0599976c-0.0098877,0.0200043-0.0298767,0.030098-0.039978,0.0500031
		c-0.0100098,0.0199966-0.0299072,0.0401001-0.039917,0.0599976c-0.0100098,0.0199966-0.0300903,0.0401001-0.0401001,0.0599976
		c-0.0198975,0.0200043-0.0299072,0.0400009-0.0400085,0.0600052c-0.019989,0.0199966-0.0299988,0.0299988-0.0498962,0.0500946
		c-0.0099792,0.0199051-0.0300903,0.0399017-0.0401001,0.0600052c-0.0098877,0.0198975-0.0298767,0.0398941-0.039978,0.0599976
		c-0.0100098,0.0198975-0.0299072,0.0399017-0.039917,0.0598984c-0.0201111,0.0101013-0.0300903,0.0299988-0.0401001,0.0500031
		c-0.0198975,0.0200958-0.0299072,0.0400009-0.0499878,0.0599976c-0.0100098,0.0201035-0.0299072,0.0400009-0.039917,0.0599976
		c-0.0099792,0.0201035-0.0300903,0.0400009-0.0401001,0.0600052c-0.0098877,0.0099945-0.0298767,0.030098-0.039978,0.0499954
		c-0.0200195,0.0200043-0.0299072,0.0401001-0.039917,0.0600052c-0.0201111,0.0199966-0.0300903,0.0401001-0.0499878,0.0599976
		c-0.0100098,0.0199966-0.0301208,0.0401001-0.0401001,0.0599976c-0.0100098,0.0100021-0.0299072,0.0299988-0.039917,0.0501022
		c-0.0099792,0.0198975-0.0300903,0.0399017-0.0401001,0.0599976c-0.0198975,0.0199051-0.0298767,0.0399017-0.039978,0.0600052
		c-0.0200195,0.0198975-0.0299072,0.0398941-0.0499268,0.0599976c-0.0101013,0.0100021-0.0300903,0.0298996-0.039978,0.0498962
		c-0.0100098,0.0201035-0.0301208,0.0400009-0.0401001,0.0600052c-0.0100098,0.0200958-0.0299072,0.0400009-0.039917,0.0599976
		c-0.0200806,0.0201035-0.0300903,0.0400009-0.0401001,0.0500031c-0.0198975,0.0199966-0.0298767,0.0401001-0.0499878,0.0599976
		c-0.0100098,0.0199966-0.0299072,0.0401001-0.039917,0.0599976c-0.0101013,0.0200043-0.0300903,0.0401001-0.039978,0.0600052
		c-0.0100098,0.0199966-0.0301208,0.0401001-0.0401001,0.0500946c-0.0200195,0.0199051-0.0299072,0.0399017-0.039917,0.0600052
		c-0.0200806,0.0198975-0.0300903,0.0398941-0.0499878,0.0599976c-0.0100098,0.0198975-0.0300903,0.0399017-0.0401001,0.0599976
		c-0.0100098,0.0199051-0.0299072,0.0399017-0.039917,0.0499039c-0.0101013,0.0200958-0.0300903,0.0400009-0.039978,0.0599976
		c-0.0200195,0.0201035-0.0301208,0.0400009-0.0401001,0.0599976c-0.0200195,0.0201035-0.0299072,0.0400009-0.0498962,0.0600052
		c-0.0101013,0.0100021-0.0201111,0.030098-0.0301208,0.0400009c-0.1298828,0.2099991-0.289978,0.409996-0.4899902,0.6000977
		c-0.7600098,0.7698975-1.579895,1.4598999-2.4500122,2.0898972c-0.8699951,0.6300049-1.7698975,1.1800003-2.6998901,1.670105
		c-0.9400024,0.4899979-1.920105,0.9098969-2.9400024,1.25c-2.5401001,0.8599014-5.0801086,1.2598953-7.6300049,1.2098999
		c-2.5499878-0.0400009-4.9801025-0.5600052-7.2999878-1.5500031c-2.3099976-0.9899979-4.3800049-2.5-6.2000122-4.5399017
		c-1.8300781-2.0401001-3.2599792-4.6299973-4.3199768-7.7700958c-0.9101257-2.7099991-1.2801208-5.3800049-1.1200256-7.9799042
		c0.1300049-1.9800949,0.539917-3.8500977,1.2299194-5.6199951c0-0.0201035,0.0099792-0.0401001,0.0200806-0.0699997
		c0.0100098-0.0201035,0.0200195-0.0401001,0.0299072-0.0600052c0.0100098-0.030098,0.0200195-0.0500946,0.0300903-0.0700989
		c0.0100098-0.0199966,0.0200195-0.0400009,0.0299072-0.0598984c0.0100098-0.030098,0.0200195-0.0500031,0.0301208-0.0700989
		c0-0.0200043,0.0099792-0.0399017,0.019989-0.0699997c0.0098877-0.0200043,0.0198975-0.0399017,0.0299072-0.0600052
		c0.0101013-0.0299988,0.0200806-0.0498962,0.0300903-0.0699997c0.0098877-0.0199966,0.0198975-0.0398941,0.0299072-0.0699997
		c0.0099792-0.0198975,0.0200806-0.0399933,0.0200806-0.0599976c0.0100098-0.0199966,0.0200195-0.0500031,0.0299072-0.0699997
		c0.0100098-0.0198975,0.0200195-0.0400009,0.0300903-0.0599976c0.0100098-0.0298996,0.0200195-0.0500031,0.0299072-0.0699997
		c0.0100098-0.0199051,0.0200195-0.0400009,0.0301208-0.0699997c0.0099792-0.0200043,0.019989-0.0400009,0.019989-0.0600052
		c0.0098877-0.0198975,0.0198975-0.0499954,0.0299072-0.0699005c0.0101013-0.0200958,0.0200806-0.0401001,0.0300903-0.0599976
		c0.0098877-0.030098,0.0198975-0.0501022,0.0299072-0.0699997c0.0099792-0.0201035,0.0200806-0.0401001,0.0300903-0.0699997
		c0-0.0201035,0.0198975-0.0401001,0.0198975-0.0599976c0.0100098-0.0201035,0.0200195-0.0500031,0.0300903-0.0700989
		c0.0100098-0.0200043,0.0200195-0.0400009,0.0299072-0.0600052c0.0100098-0.0299988,0.0200195-0.0498962,0.0301208-0.0699997
		c0.0099792-0.0199966,0.019989-0.0399017,0.0298767-0.0699997c0-0.0199966,0.0100098-0.0399017,0.0200195-0.0599976
		c0.0101013-0.0200043,0.0200806-0.0500031,0.0300903-0.0699997c0.0098877-0.0200043,0.0198975-0.0399017,0.0299072-0.0600052
		c0.0099792-0.0298996,0.0200806-0.0499954,0.0300903-0.0699997c0.0100098-0.0198975,0.0198975-0.0399933,0.0299072-0.0699997
		c0-0.0198975,0.0100098-0.0400009,0.0200806-0.0599976c0.0100098-0.0198975,0.0200195-0.0500031,0.0299072-0.0699997
		c0.0100098-0.0198975,0.0200195-0.0400009,0.0301208-0.0599976c0.0099792-0.0299988,0.019989-0.0500031,0.0298767-0.0699997
		c0.0100098-0.0200043,0.0200195-0.0400009,0.0301208-0.0699005c0-0.0201035,0.0099792-0.0401001,0.019989-0.0600052
		c0.0098877-0.0200958,0.0198975-0.0500946,0.0299072-0.0699997c0.0099792-0.0200958,0.0200806-0.0401001,0.0300903-0.0599976
		c0.0100098-0.030098,0.0198975-0.0501022,0.0299072-0.0699997c0.0100098-0.0201035,0.0200806-0.0401001,0.0200806-0.0700989
		c0.0100098-0.0200043,0.0200195-0.0399017,0.0299072-0.0599976c0.0100098-0.0200043,0.0200195-0.0499039,0.0301208-0.0700073
		c0.0099792-0.0199966,0.019989-0.0398941,0.0298767-0.0599976c0.0100098-0.0299988,0.0200195-0.0498962,0.0301208-0.0699997
		c0-0.0199966,0.019989-0.0399017,0.019989-0.0699997c0.0098877-0.0199966,0.0198975-0.0400009,0.0299072-0.0599976
		c0.0099792-0.0200043,0.0200806-0.0500031,0.0300903-0.0699997c0.0100098-0.0199051,0.0198975-0.0400009,0.0299072-0.0600052
		c0.0100098-0.0298996,0.0200806-0.0499954,0.0300903-0.0699997c0-0.0198975,0.0198975-0.0400009,0.0198975-0.0699997
		c0.0100098-0.0198975,0.0200195-0.0400009,0.0301208-0.0599976c0.0099792-0.0198975,0.019989-0.0500031,0.0298767-0.0699005
		l0.0301208-0.0600967c0.0099792-0.0300064,0.019989-0.0500031,0.0298767-0.0699005
		c0-0.0201035,0.0100098-0.0401001,0.0200195-0.0699997c0.0099792-0.0201035,0.0200806-0.0401001,0.0300903-0.0600052
		c0.0100098-0.030098,0.0198975-0.0500946,0.0299072-0.0700989c0.0100098-0.0199966,0.0200806-0.0400009,0.0300903-0.0598984
		c0.0100098-0.030098,0.0198975-0.0500031,0.0299072-0.0700989c0-0.0200043,0.0100098-0.0399017,0.0201111-0.0699997
		c0.0099792-0.0200043,0.019989-0.0399017,0.0298767-0.0600052c0.0100098-0.0199966,0.0200195-0.0498962,0.0301208-0.0699997
		c0.0099792-0.0199966,0.019989-0.0398941,0.0298767-0.0699997c0.0100098-0.0198975,0.0200195-0.0399933,0.0200195-0.0599976
		c0.0099792-0.0199966,0.0200806-0.0400009,0.0300903-0.0699997c0.0100098-0.0198975,0.0198975-0.0400009,0.0299072-0.0599976
		c0.0100098-0.0298996,0.0200806-0.0500031,0.0300903-0.0699997c0.0100098-0.0199051,0.0198975-0.0400009,0.0299072-0.0699997
		c0.0100098-0.0200043,0.0201111-0.0400009,0.0201111-0.0600052c0.0099792-0.0198975,0.019989-0.0400009,0.0298767-0.0699005
		c0.0100098-0.0200958,0.0200195-0.0401001,0.0301208-0.0599976c0.0099792-0.030098,0.019989-0.0501022,0.0298767-0.0699997
		c0.0100098-0.0201035,0.0200195-0.0401001,0.0299988-0.0699997c0-0.0201035,0.0201111-0.0401001,0.0201111-0.0599976
		c0.0100098-0.0201035,0.0198975-0.0500031,0.0299072-0.0700989c0.0100098-0.0200043,0.0200806-0.0400009,0.0300903-0.0600052
		c0.0100098-0.0299988,0.0198975-0.0498962,0.0299072-0.0699997c0.0100098-0.0199966,0.0201111-0.0399017,0.0300903-0.0699997
		c0-0.0199966,0.0198975-0.0399017,0.0198975-0.0599976c0.0100098-0.0200043,0.0200195-0.0500031,0.0301208-0.0699997
		c0.0099792-0.0200043,0.019989-0.0399017,0.0298767-0.0600052c0.0100098-0.0298996,0.0200195-0.0499954,0.0299988-0.0699997
		c0.0101013-0.0198975,0.0201111-0.0399933,0.0301208-0.0699997c0-0.0198975,0.0098877-0.0400009,0.0198975-0.0599976
		c0.0100098-0.0198975,0.0200806-0.0500031,0.0300903-0.0699997c0.0100098-0.0198975,0.0198975-0.0400009,0.0299072-0.0599976
		c0.0100098-0.0299988,0.0201111-0.0500031,0.0300903-0.0699997c0.0100098-0.0200043,0.0198975-0.0400009,0.0198975-0.0699005
		c0.0100098-0.0201035,0.0200195-0.0401001,0.0301208-0.0600052c0.0099792-0.0200958,0.019989-0.0500946,0.0298767-0.0699997
		c0.0100098-0.0200958,0.0200195-0.0401001,0.0299988-0.0599976c0.0101013-0.030098,0.0201111-0.0501022,0.0301208-0.0699997
		c0.0098877-0.0201035,0.0198975-0.0401001,0.0198975-0.0700989c0.0100098-0.0200043,0.0200806-0.0399017,0.0300903-0.0599976
		c0.0100098-0.0200043,0.0198975-0.0499039,0.0299072-0.0700073c0.0100098-0.0199966,0.0201111-0.0398941,0.0300903-0.0599976
		c0.0100098-0.0299988,0.0198975-0.0498962,0.0299072-0.0699997c0-0.0199966,0.0201111-0.0399017,0.0201111-0.0699997
		c0.0099792-0.0199966,0.019989-0.0400009,0.0298767-0.0599976c0.0100098-0.0200043,0.0200195-0.0500031,0.0299988-0.0699997
		c0.0101013-0.0199051,0.0201111-0.0400009,0.0301208-0.0600052c0.0098877-0.0298996,0.0198975-0.0499954,0.0299072-0.0699997
		c0-0.0198975,0.0200806-0.0400009,0.0200806-0.0699997c0.0100098-0.0198975,0.0198975-0.0400009,0.0299072-0.0599976
		c0.0100098-0.0198975,0.0201111-0.0500031,0.0300903-0.0699005c0.0100098-0.0200958,0.0198975-0.0401001,0.0299072-0.0600967
		c0.0100098-0.0300064,0.0201111-0.0500031,0.0300903-0.0699005c0-0.0201035,0.0100098-0.0401001,0.0198975-0.0699997
		c0.0100098-0.0201035,0.0200195-0.0401001,0.0299988-0.0600052c0.0101013-0.0200958,0.0201111-0.0500946,0.0301208-0.0700989
		c0.0098877-0.0199966,0.0198975-0.0400009,0.0299072-0.0598984c0.0100708-0.030098,0.0200806-0.0500031,0.0300903-0.0700989
		c0-0.0200043,0.0098877-0.0399017,0.0198975-0.0699997c0.0100098-0.0200043,0.0201111-0.0399017,0.0300903-0.0600052
		c0.0100098-0.0199966,0.0198975-0.0498962,0.0299072-0.0699997c0.0100098-0.0199966,0.0201111-0.0398941,0.0300903-0.0599976
		c0.0100098-0.0298996,0.0198975-0.0499954,0.0198975-0.0699997c0.0100098-0.0199966,0.0200195-0.0400009,0.0299988-0.0699997
		c0.0101013-0.0198975,0.0201111-0.0400009,0.0301208-0.0599976c0.0098877-0.0298996,0.0198975-0.0500031,0.0299072-0.0699997
		c0.0100708-0.0199051,0.0200806-0.0400009,0.0300903-0.0600052c0.0098877-0.0299988,0.0198975-0.0499954,0.0198975-0.0699997
		c0.0100098-0.0198975,0.0201111-0.0400009,0.0300903-0.0699005c0.0100098-0.0200958,0.0198975-0.0401001,0.0299072-0.0599976
		c0.0100098-0.030098,0.0201111-0.0501022,0.0300903-0.0699997c0.0100098-0.0201035,0.0198975-0.0401001,0.0299072-0.0599976
		c0-0.0301056,0.019989-0.0501022,0.019989-0.0699997c0.0101013-0.0201035,0.0201111-0.0401001,0.0301208-0.0700989
		c0.0098877-0.0200043,0.0198975-0.0400009,0.0299072-0.0600052c0.0100708-0.0299988,0.0200806-0.0498962,0.0300903-0.0699997
		c0.0098877-0.0199966,0.0198975-0.0399017,0.0299072-0.0599976c0-0.0299988,0.0200806-0.0499039,0.0200806-0.0699997
		c0.0100098-0.0200043,0.0198975-0.0399017,0.0299072-0.0699997c0.0100098-0.0200043,0.0201111-0.0399017,0.0300903-0.0600052
		c0.0100098-0.0298996,0.0198975-0.0499954,0.0299072-0.0699997c0.0100098-0.0198975,0.019989-0.0399933,0.0300903-0.0599976
		c0-0.0298996,0.0100098-0.0500031,0.0200195-0.0699997c0.0098877-0.0198975,0.0198975-0.0400009,0.0299072-0.0699997
		c0.0100708-0.0198975,0.0200806-0.0400009,0.0300903-0.0599976c0.0098877-0.0299988,0.0198975-0.0500031,0.0299072-0.0699997
		c0.0101013-0.0200043,0.0200806-0.0400009,0.0300903-0.0699005c0-0.0201035,0.0098877-0.0401001,0.0198975-0.0600052
		c0.0100098-0.0200958,0.0201111-0.0500946,0.0300903-0.0699997c0.0100098-0.0200958,0.0198975-0.0401001,0.0299072-0.0599976
		c0.0100098-0.030098,0.019989-0.0501022,0.0300903-0.0699997c0.0100098-0.0201035,0.0200195-0.0401001,0.0200195-0.0700989
		c0.0098877-0.0200043,0.0198975-0.0399017,0.0299072-0.0599976c0.0100708-0.0200043,0.0200806-0.0499039,0.0300903-0.0700073
		c0.0098877-0.0199966,0.0198975-0.0398941,0.0299072-0.0599976c0.0101013-0.0299988,0.0200806-0.0498962,0.0300903-0.0699997
		c0.0098877-0.0199966,0.0198975-0.0399017,0.0198975-0.0699997c0.0100098-0.0199966,0.0201111-0.0400009,0.0300903-0.0599976
		c0.0100098-0.0200043,0.0198975-0.0500031,0.0299072-0.0699997c0.0100098-0.0199051,0.019989-0.0400009,0.0300903-0.0600052
		c0.0100098-0.0298996,0.0200195-0.0499954,0.0299072-0.0699997c0-0.0198975,0.0200195-0.0400009,0.0200195-0.0699997
		c0.0100708-0.0198975,0.0200806-0.0400009,0.0300903-0.0599976c0.0098877-0.0198975,0.0198975-0.0500031,0.0299072-0.0699005
		l0.0300903-0.0600967c0.0098877-0.0300064,0.0198975-0.0500031,0.0299072-0.0699005
		c0-0.0201035,0.0200806-0.0401001,0.0200806-0.0699997c0.0100098-0.0201035,0.0198975-0.0401001,0.0299072-0.0600052
		c0.0100098-0.0200958,0.019989-0.0500946,0.0300903-0.0700989c0.0100098-0.0199966,0.0200195-0.0400009,0.0299072-0.0598984
		c0.1199951-0.3200989,0.25-0.6400986,0.3900146-0.9501038c0.0101013-0.0299988,0.0200806-0.0498962,0.0300903-0.0699997
		c0.0098877-0.0199966,0.0198975-0.0398941,0.0299072-0.0599976c0.0099792-0.0298996,0.0200806-0.0499954,0.0300903-0.0699997
		c0.0100098-0.0199966,0.0100098-0.0500031,0.0198975-0.0699997c0.0100098-0.0198975,0.0200195-0.0400009,0.0300903-0.0699997
		c0.0100098-0.0198975,0.0200195-0.0400009,0.0299072-0.0599976c0.0100098-0.0199051,0.0200195-0.0500031,0.0301208-0.0699997
		c0.0099792-0.0200043,0.019989-0.0400009,0.0298767-0.0600052c0.0100098-0.0299988,0.0100098-0.0499954,0.0200195-0.0699005
		c0.0101013-0.0200958,0.0200806-0.0401001,0.0300903-0.0699997c0.0098877-0.0200958,0.0198975-0.0401001,0.0299072-0.0599976
		c0.0099792-0.030098,0.0200806-0.0501022,0.0300903-0.0699997c0.0100098-0.0201035,0.0198975-0.0401001,0.0299072-0.0700989
		c0.0100098-0.0200043,0.0100098-0.0399017,0.0200806-0.0599976c0.0100098-0.0200043,0.0200195-0.0499039,0.0299072-0.0700073
		c0.0100098-0.0199966,0.0200195-0.0398941,0.0301208-0.0699997c0.0099792-0.0199966,0.019989-0.0398941,0.0298767-0.0599976
		c0.0100098-0.0199966,0.0200195-0.0499954,0.0301208-0.0699997c0.0099792-0.0199966,0.019989-0.0400009,0.0298767-0.0699997
		c0-0.0198975,0.0100098-0.0400009,0.0200195-0.0599976c0.0099792-0.0199051,0.0200806-0.0500031,0.0300903-0.0699997
		c0.0100098-0.0199051,0.0198975-0.0400009,0.0299072-0.0600052c0.0100098-0.0299988,0.0200806-0.0499954,0.0300903-0.0699997
		c0.0100098-0.0198975,0.0198975-0.0400009,0.0299072-0.0699005c0-0.0200958,0.0100098-0.0401001,0.0201111-0.0599976
		c0.0099792-0.0200958,0.019989-0.0501022,0.0298767-0.0699997c0.0100098-0.0201035,0.0200195-0.0401001,0.0301208-0.0699997
		c0.0099792-0.0201035,0.019989-0.0401001,0.0298767-0.0599976c0.0100098-0.0201035,0.0200195-0.0500031,0.0299988-0.0700989
		c0.0101013-0.0200043,0.0101013-0.0400009,0.0201111-0.0600052c0.0100098-0.0299988,0.0198975-0.0498962,0.0299072-0.0699997
		c0.0100098-0.0199966,0.0200806-0.0498962,0.0300903-0.0699997c-0.7200928,1.9001007-1.1500854,3.9001007-1.2800903,6.0100021
		c-0.1799927,2.8399963,0.2301025,5.7299957,1.2200928,8.6900024c1.1398926,3.409996,2.7098999,6.2199936,4.6900024,8.4399948
		c1.980011,2.2200012,4.230011,3.8600006,6.75,4.9401016c2.5198975,1.0699997,5.1599121,1.6399994,7.9299927,1.6900024
		c2.7698975,0.0498962,5.539917-0.3901062,8.3000183-1.3100052c1.119873-0.3799973,2.1799011-0.830101,3.1999817-1.3699951
		c1.0100098-0.5301056,1.9900208-1.1400986,2.9400024-1.8199997c0.9400024-0.6800003,1.829895-1.4300003,2.6599121-2.2701035
		C305.9715271,102.8563766,306.0415344,102.7763748,306.1214294,102.6964798z"/>
	<path class="st14" d="M306.9315491,100.5764771c0,0.1598969-0.0100098,0.3199997-0.0401001,0.469902
		c-0.039917,0.3199997-0.1400146,0.6199951-0.2799072,0.9001007c-0.0700073,0.1498947-0.1600952,0.2798996-0.25,0.419899
		c-0.0100098,0.0100021-0.019989,0.030098-0.0300903,0.0400009c-0.0100098,0.0199966-0.0299072,0.0401001-0.039917,0.0599976
		c-0.0200806,0.0199966-0.0300903,0.0401001-0.0401001,0.0599976c-0.0198975,0.0200043-0.0299072,0.0299988-0.0499878,0.0501022
		c-0.0100098,0.0198975-0.0299072,0.0399017-0.039917,0.0599976c-0.0200806,0.0199051-0.0300903,0.0399017-0.0401001,0.0600052
		c-0.079895,0.079895-0.1499023,0.1598969-0.2299805,0.2298965c-0.8300171,0.8401031-1.7199097,1.5901031-2.6599121,2.2701035
		c-0.9499817,0.6799011-1.9299927,1.2898941-2.9400024,1.8199997c-1.0200806,0.5398941-2.0801086,0.9899979-3.1999817,1.3699951
		c-2.7601013,0.919899-5.5301208,1.3599014-8.3000183,1.3100052c-2.7700806-0.0500031-5.4100952-0.6200027-7.9299927-1.6900024
		c-2.519989-1.080101-4.769989-2.7201004-6.75-4.9401016c-1.9801025-2.2200012-3.5501099-5.0299988-4.6900024-8.4399948
		c-0.9899902-2.9600067-1.4000854-5.8500061-1.2200928-8.6900024c0.1300049-2.1099014,0.5599976-4.1099014,1.2800903-6.0100021
		c0.0299072-0.0399017,0.039917-0.0899963,0.0599976-0.1399994c0.0198975-0.0400009,0.0299072-0.0799026,0.0500183-0.1200027
		c0.0298767-0.0699997,0.0598755-0.1399994,0.0899963-0.2098999c0.0198975-0.0699997,0.0499878-0.1299973,0.079895-0.1899948
		c0.0201111-0.0501022,0.0401001-0.1001053,0.0599976-0.1400986c0.0201111-0.0600052,0.0499878-0.1199036,0.0799866-0.1799011
		c0.1401062-0.3100052,0.2801208-0.6200027,0.4401245-0.9300003c1.25-2.4501038,2.9698792-4.6100998,5.1598816-6.4701004
		c2.1900024-1.8700027,4.7801208-3.3100052,7.7700195-4.3100052c1.6899719-0.5699997,3.4100952-0.9300003,5.1500854-1.0898972
		c1.7399902-0.1601028,3.4400024-0.1100998,5.0999146,0.1399002c1.1699829,0.1700974,2.0200806,0.7600021,2.5499878,1.7699966
		c0.5300903,1.0201035,0.5799866,2.0901031,0.1500854,3.2200012c-0.0800781,0.2700043-0.2000732,0.5-0.3300781,0.7099991
		c0,0.0201035-0.0100098,0.0301056-0.0200195,0.0500031c-0.0198975,0.0199966-0.0298767,0.0500031-0.039978,0.0699997
		c0,0.0100021-0.0100098,0.0200043-0.0100098,0.030098c-0.0100098,0.0100021-0.0198975,0.0298996-0.0299072,0.0399017
		c-0.2800903,0.4001007-0.6500854,0.6900024-1.1099854,0.9001007c-0.7600098,0.3398972-1.6101074,0.4498978-2.5401001,0.3398972
		c-1.0599976-0.1100006-2.1400146-0.1100006-3.2400208,0c-1.0899963,0.1100006-2.1900024,0.3501053-3.3098755,0.7201004
		c-2.0700989,0.6999054-3.8099976,1.6499023-5.2201233,2.8498993c-1.4100037,1.2000046-2.4899902,2.5901031-3.2399902,4.1900024
		c-0.7399902,1.5901031-1.1300049,3.3199997-1.1700134,5.1699982c-0.0298767,1.2200012,0.1000061,2.4801025,0.3901062,3.7600021
		c0.0899048,0.4300003,0.2000122,0.8700027,0.3300171,1.3099976c0.0698853,0.2301025,0.1398926,0.4600067,0.2198792,0.6900024
		c0.7900085,2.3401031,1.8000183,4.2600021,3.0500183,5.7600021c1.2599792,1.5100021,2.6699829,2.6299973,4.25,3.3799973
		c1.5700073,0.7601013,3.2599792,1.1400986,5.0599976,1.1501007c1.7901001,0.0198975,3.6300049-0.2901001,5.5100098-0.9200974
		c1.039978-0.3499985,2.039978-0.7900009,3.0101013-1.3299026c0.9798889-0.5401001,1.8598938-1.2201004,2.6499939-2.0401001
		c0.6799927-0.6598969,1.4299927-1.0599976,2.25-1.2098999c0.829895-0.1501007,1.6199951,0.0298996,2.3898926,0.5399017
		c1.0900879,0.7100983,1.7000122,1.5999985,1.8299866,2.6900024
		C306.9215393,100.2763748,306.9315491,100.4263763,306.9315491,100.5764771z"/>
	<g>
		<path class="st15" d="M293.5215454,66.2864761c-1.5262146,0.8127975-2.8815918,0.8768997-4.2937012,1.0206985
			c-1.3956909,0.1803055-2.7796936,0.4002991-4.1382141,0.7204056c-2.7230835,0.5951996-5.3598022,1.6208954-7.6355896,3.2136993
			c-1.115387,0.822998-2.1264038,1.7742004-3.0331116,2.8134995c-0.9136963,1.0376968-1.6297913,2.2294998-2.3088989,3.4276962
			c-0.6407776,1.2248993-1.2178955,2.4865036-1.6955872,3.8011017c-0.2590942,0.6480026-0.4508972,1.3264008-0.6836853,1.9912033
			c-0.1281128,0.3307953-0.1417236,0.6898956-0.3489075,1.0066986c-0.206604,0.3184967-0.5078125,0.6180954-1.1151123,0.8788986
			c-0.8908997-0.9072037-0.6878967-1.6576004-0.5332947-2.3902969c0.1893005-0.731102,0.2994995-1.4865036,0.5610962-2.2030029
			c0.2340088-0.7238998,0.4620972-1.4524994,0.7911072-2.1458969c0.2796936-0.7121048,0.6543884-1.3847046,1.0229797-2.0574036
			c1.5475159-2.6551971,3.680603-4.9749985,6.1787109-6.75c2.4906921-1.7854004,5.322113-3.0820999,8.2774963-3.8132019
			c1.4821167-0.3470993,2.9929199-0.5559006,4.5061951-0.5964966
			C290.5696411,65.1397781,292.1439514,65.1801758,293.5215454,66.2864761z"/>
	</g>
	<g>
		<path class="st15" d="M297.9506531,108.0764771c1.2507019-1.0626984,2.6009827-1.8487015,3.9277954-2.6774979
			c1.3157043-0.8300018,2.5863037-1.7678986,3.5863953-2.8459015l0.8843994,0.7077026l-4.8009949,6.5031967l-2.3990173,3.2525024
			l-1.1799011,1.6407013c-0.3634033,0.5354996-0.8466797,1.1548996-1.3556824,1.612793
			c-2.0462036,1.9125061-4.5258179,3.2754059-7.1440125,4.1383057c-1.3003845,0.4701996-2.6611938,0.7198944-4.0118713,0.9547958
			c-1.3586121,0.1058044-2.7227173,0.5727005-4.1062317-0.1366959c0.6582947-0.4494019,1.3067017-0.5779037,1.9685974-0.6268997
			l1.9630127-0.2881012c1.2958984-0.2553024,2.5772095-0.5703049,3.8207092-0.9927979
			c2.4888916-0.8178024,4.8555908-2.0835037,6.7759094-3.8237c0.497467-0.4443054,0.8508911-0.887001,1.2562866-1.4574051
			l1.2026062-1.6223984l2.3659973-3.2735977l4.7288818-6.549202l0.8843994,0.7076035
			c-1.1459045,1.2702942-2.5282898,2.1402969-3.9024963,2.9756927c-0.6921082,0.4119034-1.3962097,0.8002014-2.1410828,1.1049042
			C299.5302429,107.6843796,298.7682495,107.9525757,297.9506531,108.0764771z"/>
	</g>
</g>
<g>
	<path class="st16" d="M211.2266388,288.2153625c22.173996,57.6533203,89.2017975,54.9258118,113.5828094,33.3411255
		c30.9599915-27.4092102,27.2103882-75.8702087,0-103.3501129"/>
	<path class="st0" d="M4.3506498,311.8429871c-6.9115-42.7349243,13.5444002-90.6536102,54.7606964-111.1728058
		c0.4950981-0.2463989,0.9906998-0.4886017,1.4869003-0.7265015"/>
	<path class="st17" d="M112.2372437,379.4762878c0,0-40.8727951,24.4155884-82.6944962-17.3959045
		C15.5787497,348.119873,7.3638496,330.4740906,4.3506498,311.8429871"/>
	<path class="st17" d="M60.5982475,199.9436798c58.8185997-28.2053986,125.0345001,3.5782013,148.3105011,81.4618073
		c0.7065887,2.3643799,1.4807892,4.6333923,2.3178864,6.8098755"/>
</g>
</svg>
