<?xml version="1.0" encoding="utf-8"?>
<!-- Generator: Adobe Illustrator 23.0.1, SVG Export Plug-In . SVG Version: 6.00 Build 0)  -->
<svg version="1.1" id="Слой_1" xmlns="http://www.w3.org/2000/svg" xmlns:xlink="http://www.w3.org/1999/xlink" x="0px" y="0px"
	 viewBox="0 0 229.6923065 332.3171387" style="enable-background:new 0 0 229.6923065 332.3171387;" xml:space="preserve">
<style type="text/css">
	.st0{fill:#5BC6B6;}
	.st1{fill:#197F3B;}
	.st2{fill:#FFAEAE;}
	.st3{fill:none;stroke:#D65151;stroke-width:0.929316;stroke-miterlimit:10;}
	.st4{fill:#D65151;}
	.st5{fill:#1C211C;}
	.st6{fill:#702303;}
	.st7{fill:none;stroke:#197F3B;stroke-width:1.2679501;stroke-linecap:round;stroke-linejoin:round;stroke-miterlimit:10;}
</style>
<g>
	<g>
		<path class="st0" d="M127.7349548,48.2209129c1.4087982,0.4464035,9.3838043,3.0340004,14.1396942,6.6692009
			c3.9192047,2.9958,8.0250092,7.4312019,8.0250092,7.4312019s24.6557007,20.8588982,26.4965057,24.7828026
			c1.840683,3.9238968-0.1534119,9.2060928-2.6078033,11.3188934c-2.4544067,2.1128998-6.1360016,1.3582993-7.82341,0.6037064
			c-1.6873932-0.7546005-25.1643982-15.4999008-25.1643982-15.4999008l-2.8463898-0.6842041
			c0,0-6.514801-1.3835983-8.0381012-16.2634964C129.0350494,57.9728165,127.7349548,48.2209129,127.7349548,48.2209129z"/>
		<g>
			<path class="st1" d="M143.2749481,85.0784149c1.1450043-0.0064011,1.9846039,0.4788971,2.8231049,0.9660034
				c0.8484039,0.4712982,1.6775055,0.9734955,2.4958954,1.4929962l4.8977051,3.1374969
				c1.6508026,1.0165024,3.3531036,1.9501038,4.9239044,3.0954056c1.5809937,1.1287994,3.1403961,2.2924957,4.6234894,3.5789948
				c-1.8108826-0.7584991-3.5454865-1.6399994-5.2584991-2.5563965c-1.7231903-0.8998032-3.3148956-2.0112991-4.9580994-3.0400009
				l-4.9843903-2.9979019c-0.8287048-0.5030975-1.6464996-1.0234985-2.4450989-1.5747986
				C144.5843506,86.6448135,143.776947,86.1076126,143.2749481,85.0784149z"/>
		</g>
		<path class="st2" d="M207.1559601,120.2238159c-2.6079102,3.3956985-6.0593109,2.5656967-7.5932007,2.0373993
			c-0.5880127-0.2012024-3.221405-1.8235016-6.2383118-3.7478027c-0.9140015-1.5783005-1.6617889-4.6909943,0.9842987-7.6338959
			c4.480011-4.982399,8.4114075-2.6789017,8.4114075-2.6789017c2.0964966,1.0565033,3.4387054,1.8488007,4.1676941,2.2617035
			C206.8878479,110.4623184,209.7637482,116.8282166,207.1559601,120.2238159z"/>
		<path class="st0" d="M202.7201538,108.188118c0,0.0124969,0,0.0124969,0,0.0124969s-0.7030945,2.1884003-1.7769012,3.471199
			c-1.0737,1.2827988-6.1103058,6.9045029-7.6188049,6.8415985h-0.0128021
			c-1.495697-0.1006012-5.5606995,1.0062027-7.7082977-1.6348953c-2.1476898-2.6411057-5.5222931-6.477005-5.5222931-6.477005
			v-0.0124969c-2.3793945-1.3057022-11.4573975-6.8347015-14.1161041-11.3622971
			c-5.3181-9.0174026,6.9062958-15.0611038,9.9743042-12.8602066c0,0,5.5989075,4.3012009,12.2719116,9.7091064
			c0,0,0.0126801,0,0.0254822,0.0125961c0.6519012,0.3773041,9.3957977,5.8607025,11.40271,6.9548035
			C201.6335602,103.9372177,202.7585602,107.9240112,202.7201538,108.188118z"/>
		<g>
			<path class="st2" d="M228.8492584,120.9659119c-1.7002106,1.370903-5.3818054,0.3647003-5.7397003,0.251503h0.0382996
				c-0.0639038-0.0126038-0.0766907-0.0126038-0.0511017,0l-1.8919067,0.1509018l3.1829987,4.6659012l1.8536072,4.2761002
				c0,0-0.0639954,4.9425964-0.3963013,6.0493011c-0.2429047,0.8049011-1.8408051,0.7420959-2.7994995,0.0251923
				c-0.3195953,0.8804016-0.8565979,2.2638092-1.125,2.6788025c-0.370697,0.5659943-1.5084076,1.4212036-2.7483978,0
				c-0.1278076-0.1508942-0.2301025-0.3143921-0.3068085-0.5030975c-0.5752869,0.6414032-1.6107025,1.7608032-1.9431,1.8990936
				c-0.4601898,0.2012024-2.0196991-0.4151001-2.5181885-1.5847015c-0.4858093-1.1696014,1.1120911-3.4082947,1.1120911-3.4082947
				c-0.2556915-0.6790924-0.7798004-2.3392029-0.7798004-2.3392029l-0.5623932-0.7042999l-0.1661987,2.6159973l-2.2755127,2.7794037
				c0,0-2.0836945,0.540802-2.4798889,0.6414032c-0.3963013,0.0879974-2.1220093-0.2012024-1.7769012-1.5090942
				c0.3450928-1.3207092,2.2753906-1.4716034,2.2753906-1.4716034l0.8437042-1.5594025l-1.559494-3.383194
				c0,0-1.8023987,0.4906006-3.9116974-2.1505127c-3.1319122-0.5408936-6.0210114-2.4523926-8.1558075-7.5836945
				c-1.0993042-2.641098,5.6502075-9.2815018,8.2835999-10.2373962c0.9714966-0.3647003,1.661911-0.1131058,4.4230042,0.4778976
				c1.5722961,0.3271027,7.9384003,3.7416,7.9384003,3.7416l4.7937927,1.7921982l6.8134003,1.7229996
				C229.2198486,118.2997131,230.4982452,119.6328125,228.8492584,120.9659119z"/>
			<path class="st3" d="M212.7422485,122.7518158c0.907608,0.1131973,1.9302979,0.1006012,2.8123016-0.2389984l2.5310974-0.9055023
				l3.1191101-0.2388992"/>
			<g>
				<path class="st4" d="M217.6126556,126.7637177c0.8712921-0.2453995,1.2868042,0.149498,1.7850037,0.4281006
					c0.4826965,0.300499,0.9543915,0.616394,1.403595,0.9637909l0.1266937,0.0979004l0.0541077,0.0886078
					c0.6539917,1.0708923,1.2982941,2.1481018,2.0351105,3.1638031l0.1478882,0.2039948l-0.0554962,0.3108978
					c-0.1271057,0.7116089-0.1613922,1.4960022-0.1511993,2.2124023c0.0071869,0.3529053,0.0274963,0.7341919,0.0678864,1.028595
					c0.0087128,0.1025085,0.0416107,0.2117004,0.1035004,0.3229065c0.0776062,0.1051025,0.0744171,0.251297-0.084198,0.8000946
					c-0.4805908,0.3134003-0.7773895,0.1828003-0.9395905-0.0312958c-0.1779022-0.2073975-0.328598-0.4611969-0.4196014-0.7454987
					c-0.1350098-0.4849091-0.1876984-0.90271-0.1959076-1.3473053c-0.0108032-0.4364014,0.0269012-0.8643036,0.088501-1.2838898
					c0.0633087-0.4246063,0.1442108-0.8215027,0.2521057-1.2577057l0.092392,0.5144958
					c-0.6522827-1.0718994-1.3969879-2.0823975-2.1320953-3.0990906l0.1804962,0.1862946
					c-0.475296-0.3106995-0.928299-0.6529999-1.3701935-1.0108032
					C218.1752472,127.9305115,217.6660461,127.6673126,217.6126556,126.7637177z"/>
			</g>
			<g>
				<path class="st4" d="M215.171051,129.1658173c0.554306-0.0682983,0.8816986,0.0798035,1.1492004,0.285202
					c0.2527008,0.2193909,0.5089111,0.4355011,0.7463074,0.669693c0.482605,0.4606018,0.9176941,0.9667053,1.3542938,1.4712067
					l0.2799988,0.3235931l-0.0962067,0.0778961c-0.013092,0.0106049,0.0787048,0.2911072,0.1597137,0.4712067
					c0.0850983,0.2041016,0.1846008,0.414093,0.2845001,0.6228027c0.2133942,0.4111938,0.4529877,0.8226929,0.7029877,1.2131042
					l0.1549072,0.2418976l-0.114502,0.3483887c-0.0872955,0.2654114-0.1707001,0.5864105-0.2310944,0.8834076
					c-0.064209,0.3016052-0.1191101,0.6033936-0.1595001,0.8977051c-0.0364075,0.2943878-0.0729065,0.5845947-0.0796051,0.8630981
					c0.0003052,0.1356964-0.0083923,0.2794952,0.0124054,0.406189c0.0039978,0.1416016-0.0712891,0.2632141-0.4690094,0.6193085
					c-0.5132904,0.0413971-0.7152863-0.148407-0.7720032-0.3381042c-0.0688934-0.1970978-0.0983887-0.3909912-0.135498-0.5874023
					c-0.0583954-0.3911896-0.0505981-0.7731934-0.0108948-1.1443939c0.0373993-0.3722076,0.1242065-0.7276001,0.2245026-1.0758972
					c0.1091003-0.3516083,0.2227936-0.6730042,0.3806915-1.0319061l0.0404053,0.5899048l-0.6725922-1.3047028
					c-0.1173096-0.2174072-0.2336121-0.4342041-0.3442078-0.6665039c-0.1086884-0.2569885-0.2216949-0.4155884-0.3159027-0.8777924
					l0.183609,0.4011993c-0.4837036-0.45961-0.9690094-0.9178009-1.4067993-1.4213104
					c-0.2228088-0.2480927-0.4268036-0.5138855-0.634201-0.7765961
					C215.2097473,130.0502167,215.0769501,129.7164154,215.171051,129.1658173z"/>
			</g>
			<g>
				<path class="st4" d="M215.8137512,140.2481079c-0.5686951,0.1013031-1.1210938-0.1544952-1.4649048-0.626297
					c-0.3582916-0.4640961-0.5033875-1.0847015-0.4680939-1.639389c0.0341034-0.5618134,0.2138977-1.0678101,0.4281006-1.5337067
					c0.2294006-0.4674072,0.4924927-0.8755951,0.8300934-1.290802l-0.0851898,0.4627991
					c-0.2509003-0.7825928-0.4889069-1.5697021-0.7683105-2.342804l0.0800018,0.1467133l-1.1679993-1.356308
					c-0.188797-0.2306976-0.3681946-0.4689941-0.5401001-0.7131958l-0.2476959-0.3747101
					c-0.0919952-0.1172943-0.1542969-0.2583923,0.0897064-0.644989c0.4303894-0.1538086,0.5546875-0.0623016,0.6489868,0.0531006
					l0.3115997,0.3233948c0.201004,0.220993,0.3944092,0.4481049,0.5783997,0.6826019l1.0691071,1.4355011l0.0596008,0.0800934
					l0.0204926,0.0670013c0.2404022,0.7863007,0.5222015,1.558609,0.7911072,2.3352051l0.0818024,0.2361908l-0.1670074,0.227005
					c-0.2402802,0.3265076-0.468689,0.7272949-0.6369019,1.111496c-0.1770935,0.3861084-0.2977905,0.7890015-0.3269958,1.1681061
					c-0.0332947,0.3782959,0.0144958,0.7333069,0.1983948,1.0453033
					C215.3043518,139.418808,215.5489502,139.7255096,215.8137512,140.2481079z"/>
			</g>
			<g>
				<path class="st4" d="M218.8603516,124.7786179c-0.3209991,0.7460938-0.8739929,1.3641968-1.4584045,1.9074936
					c-0.5872955,0.550705-1.2516937,1.0033035-1.9362946,1.4111023c-0.6905975,0.3997955-1.4147034,0.7324982-2.1604919,1.0041046
					c-0.7473145,0.2667999-1.5169067,0.4707031-2.314209,0.5675964c0.6616974-0.459198,1.3381042-0.8439941,2.0110016-1.2263947
					c0.6643982-0.3969116,1.344101-0.7516022,1.9969025-1.1482086c0.6651917-0.3751984,1.3155975-0.7714005,1.9608917-1.1794968
					C217.601059,125.6978149,218.2399597,125.2808151,218.8603516,124.7786179z"/>
			</g>
			<g>
				<path class="st4" d="M209.0351563,130.5367126c-0.4322968,0.3367004-0.8843079,0.398407-1.2996979,0.3466949
					c-0.4112091-0.0771942-0.814209-0.2111969-1.2087097-0.3830872c-0.7855835-0.3457031-1.520401-0.9437103-1.9971924-1.7439117
					l0.4716949,0.3189087c-0.9140015-0.2322998-1.6795959-0.5454102-2.4597015-0.9385986
					c-0.771698-0.3825073-1.5157013-0.8255005-2.2095947-1.3471069c-0.6934967-0.5182953-1.3487091-1.1111984-1.8690033-1.8131943
					c-0.2702942-0.342804-0.498703-0.7149048-0.7062988-1.0967026c-0.1448059-0.4049988-0.6150055-0.6765976-0.0196075-1.4272003
					c0.9949036-0.039299,0.8644104,0.4358978,1.1683044,0.7130966c0.2403107,0.3008041,0.4450073,0.6221008,0.7051086,0.9023056
					c0.4737091,0.5942001,0.9984894,1.1480942,1.5762939,1.6508942c0.5740967,0.5072021,1.2210999,0.9400024,1.9165039,1.2741013
					c0.6846924,0.3253021,1.4593964,0.5919037,2.1421967,0.7041016l0.2794952,0.0458984l0.1923981,0.2730026
					c0.3524017,0.5,0.8540039,0.8957977,1.4383087,1.2355957c0.2930908,0.1687012,0.6069031,0.3146973,0.9306946,0.4582062
					C208.40625,129.8756104,208.7053528,130.1085205,209.0351563,130.5367126z"/>
			</g>
		</g>
		<g>
			<path class="st1" d="M137.6932526,52.5040131c0.9483948-0.1210976,1.8539124,0.2416,2.6598053,0.6230011
				c0.8181,0.3972015,1.5437012,0.9281006,2.2525024,1.4668007c1.4187012,1.0760994,2.7601013,2.2472992,4.0056,3.4873009
				c2.4971008,2.4333,5.1201935,4.7483978,7.6946869,7.1072006l7.8598022,6.9356995
				c1.2996979,1.1669998,2.6172028,2.3143005,3.8834076,3.5179977l1.9165039,1.7873001
				c0.643692,0.5904999,1.3166962,1.1473999,1.5166016,2.2329025c-1.1009064-0.0820007-1.728714-0.6928024-2.3858032-1.2696991
				l-1.9860992-1.7154999c-1.3355103-1.1314011-2.6197052-2.3193054-3.9217072-3.4875031l-7.7500916-7.0752029l-3.9305115-3.4779968
				c-1.2987823-1.1732979-2.677002-2.2551003-3.8919983-3.5239983c-1.2584991-1.1983032-2.5009918-2.3891029-3.8266907-3.4794998
				c-0.6625061-0.5445023-1.3496094-1.0480003-2.0174103-1.5722008
				C139.0915527,53.5423164,138.4622498,52.9895134,137.6932526,52.5040131z"/>
		</g>
		<g>
			<path class="st1" d="M184.4338531,115.4647141c-1.0131073-0.5307007-1.5343933-1.341301-2.0563049-2.1562958
				c-0.5399933-0.8032074-1.0531921-1.6219025-1.5535889-2.4487c-1.0128021-1.6459045-1.9947968-3.3114014-3.0550079-4.925705
				c-1.0769958-1.6024017-2.2384949-3.1425018-3.3663025-4.6944962c-1.143692-1.5557022-2.1964874-3.0881042-3.3210907-4.7350006
				c1.8819885,0.8175964,3.2145996,2.3917999,4.4348907,3.8970947c1.1901093,1.5572052,2.2328033,3.2087021,3.3096008,4.8307037
				c1.0782013,1.620697,2.1829071,3.223999,3.2158051,4.8723984c0.5203094,0.8215027,1.0186005,1.6569977,1.4808044,2.513504
				C183.9979553,113.466011,184.4729462,114.318718,184.4338531,115.4647141z"/>
		</g>
	</g>
	<g>
		<path class="st5" d="M118.709053,246.4519196l-1.5723953,9.9857941c0,0-2.5322037,11.648407-2.6078033,12.7778015
			c-0.3834991,5.7348938,1.7176971,8.5357056,1.7176971,8.5357056s0.8246078,12.5141907,1.9421997,14.9519958
			c1.5958023,3.4811096,4.8149033,5.8935852,6.1955032,7.2518921s7.8622971,0.143219,9.3962936-0.4604797
			c1.5340118-0.6037292,0.5151062-9.9606018,0.5151062-12.5263062c0-2.5656128-3.0462036-25.4550171-3.0462036-25.4550171
			l2.3010101-10.4332886c0,0-0.5982971-4.5968018-7.363205-5.9039001
			C119.4223557,243.8689117,118.709053,246.4519196,118.709053,246.4519196z"/>
		<path class="st6" d="M150.8583527,183.3013153c-0.0128021,3.7100983-4.3719025,22.0466919-7.5164948,34.145401
			c0,0-0.9835052,12.6595001-2.406601,14.1223907c-1.5787964,1.6229095-2.0419006,2.415802-2.7835083,2.5667114
			c-2.2114868,0.4904938-5.6372986,0.6287994-9.996582,0.1761017c-5.8291092-0.6036987-8.5008087-3.6975098-8.5008087-3.6975098
			s-1.7386017-2.4651031-1.2271042-7.2818909c0.2172012-2.0373993,0.596199-13.5100098-0.0942001-20.3013
			c-0.6903-6.7914124,2.2673035-16.4098053,3.4561081-20.5223083c0.6134949-2.100296,7.6060867-2.100296,12.2080917-3.0057983
			C138.59935,178.5976105,150.8583527,180.2200165,150.8583527,183.3013153z"/>
		<path class="st4" d="M138.1517487,234.1358185l-4.6018982,16.9405975
			c-7.1329956,6.1122131-14.3811951,0.1257935-14.8413925-4.6282043c-0.2302017-2.3265991,0.9842987-11.5451965,0.9459-15.8338013
			c0,0,2.6716995,3.093811,8.5008087,3.6975098C132.5144501,234.7646179,135.9402618,234.6263123,138.1517487,234.1358185z"/>
		<path class="st4" d="M141.0710602,101.3145142l1.4798889,13.486702c0,0,9.1820984,17.7844925,9.0744019,43.7618942
			c-0.0540009,13.0387115-0.6421967,23.975708-1.0648041,26.5413055c-0.4225922,2.5655975-2.6865997,4.357193-4.964386,6.207901
			c-2.3999939,1.9501038-10.2957001,3.1277924-13.9199982-0.2400055c-2.4606018-2.286499-6.8108063-5.1920929-8.9291077-7.0287018
			c-2.5388947-2.2012024-6.0736008-20.1495972-6.4301987-23.7822876
			c-1.2731018-12.9659119-2.672699-16.1273041-1.8562012-20.7848053
			C115.7901611,131.892807,119.8716583,101.9559174,141.0710602,101.3145142z"/>
		<g>
			<path class="st6" d="M142.5509491,114.8012161c-0.1434021,0.9076996-0.7584991,1.332901-1.3439941,1.6948013
				c-0.5858002,0.384697-1.2131958,0.6955948-1.8587952,0.9524002c-1.2875061,0.5291977-2.6376038,0.8559952-3.9813995,1.1439972
				c-0.6747131,0.1313019-1.3474121,0.284996-2.0307007,0.3635025c-0.678894,0.1176987-1.3628082,0.1904984-2.0496063,0.2345963
				c-0.686203,0.0541-1.3739929,0.0396042-2.0601044,0.0178986c-0.3429871-0.0077972-0.6830902-0.0715942-1.0236969-0.1057968
				c-0.3387985-0.0360031-0.690094-0.0174026-0.9677963-0.7096024c0.391304-0.653801,0.7089005-0.5968018,1.0389938-0.5944977
				l0.9836121-0.0084c0.6531982-0.0477982,1.3078918,0.0066986,1.9584961-0.043602
				c1.3054962-0.0237961,2.6075897-0.1512985,3.8894958-0.3956985c1.2734985-0.2851028,2.5028992-0.719902,3.6891937-1.2240982
				c0.5921021-0.2557983,1.1769104-0.5224991,1.7580109-0.7965012
				C141.1324615,115.0332184,141.6584473,114.7451172,142.5509491,114.8012161z"/>
		</g>
		<g>
			<path class="st6" d="M143.853653,215.4226074c0.2687988,1.0245056-0.0688019,1.8557129-0.4246063,2.6502075
				c-0.3420868,0.8070068-0.7494965,1.5856934-1.2080994,2.3347015c-0.9062958,1.5048981-1.9960938,2.9046021-3.2240906,4.1844025
				c-0.6011047,0.6523895-1.2610016,1.2601013-1.9772034,1.8061981c-0.7124023,0.547699-1.4716949,1.0650024-2.3194885,1.4281006
				c-0.8422089,0.3649902-1.7377167,0.6446991-2.6627045,0.7402039c-0.4627991,0.0320892-0.9262085,0.0545959-1.3857117,0.0118866
				c-0.4541931-0.0034943-0.9405823-0.0469971-1.2692871-0.7559967c0.5240936-0.6282959,0.8859863-0.5211945,1.2911987-0.5498962
				c0.3984985,0.0045013,0.7884979-0.0774994,1.1796875-0.112793c0.773819-0.1452026,1.5367126-0.3447113,2.2681122-0.6582031
				c1.4705963-0.6085052,2.8123016-1.5951996,3.9573975-2.7854004c1.1389923-1.2030029,2.0639038-2.6042023,2.911499-4.0427094
				l1.2373962-2.187088C142.6222534,216.7399139,142.9861603,216.0045166,143.853653,215.4226074z"/>
		</g>
		<g>
			<path class="st6" d="M151.5369568,165.9459076c0.6214905,1.2217102,0.6338043,2.447403,0.6602936,3.6711121
				c0.0384064,1.2242889,0.0330048,2.4487,0.0026093,3.6732025c-0.0574036,2.450592-0.1786041,4.8953857-0.3395081,7.3594971
				c-0.0368958,0.6180878-0.0822906,1.2350922-0.1634979,1.8722992c-0.0583954,0.3345947-0.0661926,0.6197968-0.2424927,1.0643921
				l-0.4197998,0.8809967c-0.6075134,1.1519012-1.4351044,2.2174072-2.473114,3.0367126
				c-1.029892,0.8230896-2.2207947,1.4533997-3.4925995,1.7858887c-0.6352997,0.1679993-1.2866821,0.2654114-1.9422913,0.3009033
				c-0.6413879,0.0391083-1.3646088,0.0404968-1.8811951-0.7057037c0.692688-0.5578918,1.1980896-0.5441895,1.7745972-0.5927887
				c0.5634003-0.0641022,1.1149902-0.2053986,1.6575012-0.3625031c1.0762939-0.345108,2.0964966-0.8594971,2.9797058-1.5552979
				c0.8796844-0.697998,1.6382904-1.5565033,2.1983948-2.5523071l0.386795-0.7651978
				c0.0626984-0.1212006,0.1183929-0.4532928,0.1620026-0.7185974c0.0839996-0.5738068,0.1405945-1.1755066,0.1873016-1.7765045
				c0.1585083-2.4144897,0.1435089-4.858902,0.1761932-7.2955933c0.0103149-1.2194977,0.0317078-2.4391022,0.0881042-3.6589966
				C150.8991547,168.3869171,150.9204559,167.1684113,151.5369568,165.9459076z"/>
		</g>
		<g>
			<path class="st6" d="M121.7891617,182.5090179c-0.9372101-0.7462006-1.3181076-1.7185974-1.6777039-2.6874084
				c-0.380806-0.9636993-0.7117004-1.9451904-1.0112-2.9361877c-0.6095047-1.9791107-1.1068039-3.9908142-1.6103058-5.9992065
				c-0.5088959-2.0077057-0.9866943-4.0274963-1.3782959-6.0708008c-0.1526031-1.0299072-0.3518982-2.0529938-0.4178009-3.0973969
				c-0.0485001-0.5198975-0.0917969-1.0388031-0.0979004-1.5634003c-0.0184021-0.5207062-0.0926971-1.0482025,0.5474014-1.591507
				c0.709198,0.4831085,0.7039948,0.9822998,0.7546005,1.4880066c0.0415955,0.5037994,0.1464996,1.004303,0.2055969,1.5074005
				l0.433609,3.0157928c0.3213959,2.0100098,0.6995926,4.0173035,1.1835938,6.0037079
				c0.5084076,1.9806976,1.1304016,3.9303894,1.7472,5.8796997c0.3143997,0.9729919,0.6207962,1.9483032,0.9082947,2.9306946
				C121.679451,180.3676147,121.9926529,181.3327179,121.7891617,182.5090179z"/>
		</g>
	</g>
	<g>
		<path class="st5" d="M115.1163559,272.9266052c0,0-1.8407974-3.0937805-6.7496033-2.1882935
			c-4.9087982,0.9055176-7.2098007,2.5656128-7.286499,5.357605s0.8437042,9.8851929,0.8437042,9.8851929
			s-1.6874008,20.9778137-2.6077957,27.9200134c-0.9204102,6.9422913,1.8407898,11.3190002,3.374794,12.828186
			c1.5339966,1.5090942,3.5282059,4.3766174,3.5282059,4.3766174s2.6077957,1.0563965,5.9825897,1.2073975
			c3.3748016,0.1508789,6.0337067-4.2257996,6.0337067-4.2257996s2.249794-5.7349243,3.0167999-8.1495972
			c0.7669983-2.4147034-4.7553024-30.3347168-4.7553024-30.3347168l-1.2272034-4.0747986L115.1163559,272.9266052z"/>
		<path class="st2" d="M97.1430588,258.0565186c1.3421936,8.5142822,2.7611008,15.7960815,3.9371948,18.03479
			c3.221405,6.1122131,12.6555023,4.5274963,14.0361023-3.169281c0.5368958-2.9681091,1.1120987-9.3193054,1.6233978-16.0100098
			c0,0-1.4700012-2.7353973-10.3707962-2.4524078C97.3658524,254.7458191,97.1430588,258.0565186,97.1430588,258.0565186z"/>
		<path class="st6" d="M95.3356552,256.2492065c0,0,0.4972992,4.216217,1.8074036,6.8692932
			c1.3101044,2.6531067,4.780899,3.2259216,11.5112991,2.4336243s8.3722-1.4456177,8.6442947-3.2696228
			c0.2720032-1.8238831,0.0230026-6.1076965,0-7.0871887C117.2255554,252.0826111,94.4997559,250.5684204,95.3356552,256.2492065z"
			/>
		<path class="st6" d="M116.7525558,256.9120178h-0.0128021c-1.7769012,0.8049011-11.7221985,3.3201904-16.1963959,1.8486938
			c-1.2273026-0.4024048-4.0684052-0.865509-5.0911026-1.6955872c-2.7354965-2.175705-3.2637024-8.4143066-3.9668961-13.8348083
			c-0.9075012-6.954895-1.7965012-31.7677002-1.6815033-35.6538086v-0.037796
			c0.0128021-0.2514954,0.0128021-0.3898926,0.0128021-0.3898926c0.1533966-4.0747986,8.7325058-5.9888,13.1810989-5.9888
			c4.4485016,0,12.3105011-2.8298035,13.7419968,2.9680939c2.0967026,6.4517975,1.8151016,18.9528046,1.7897034,24.0715027
			C119.5520554,242.2351074,121.0989532,254.9500122,116.7525558,256.9120178z"/>
		<path class="st4" d="M125.3812561,110.3319168l-3.5920944,28.3853989c0,0-4.5892105,63.7507019-5.049408,65.4107971
			c-0.4600983,1.6600952-5.4584961,7.6968994-6.532196,7.8478088c-1.0737991,0.1508942-4.6030045,1.656189-6.6030045,1.6600952
			c-3.8182983,0.0072937-9.0046005-0.9811096-11.1521988-2.1884003c-2.1476974-1.2073059-2.6356964-4.2987976-2.6356964-4.2987976
			s1.4716949-3.5364075-2.4528046-22.8540039c-3.9245987-19.3175964-3.4109955-32.2718048-3.4109955-32.2718048
			s-3.3131027-12.2240906-1.9900055-21.7885895c1.5090027-10.9087067,9.8916016-19.128006,9.8916016-19.128006l1.7858047-5.8302994
			c0,0,5.1772995-3.0183029,17.078598-1.2073975C122.6328583,105.8798141,125.3812561,110.3319168,125.3812561,110.3319168z"/>
		<g>
			<path class="st6" d="M119.5282516,169.5760193c-0.6259995-1.8480072-0.3526001-3.6300049-0.2990875-5.4281006
				c0.0914917-1.7953033,0.2459946-3.585907,0.388092-5.3776093l0.4565964-5.3724976
				c0.1556015-1.7904968,0.2467041-3.5859985,0.3731995-5.3786926l0.0128021-0.1809998l0.1175995-0.1683044
				c0.596199-0.8536072,1.1628036-1.7879028,1.6805038-2.7205048c0.5209961-0.9371033,1.0127945-1.889801,1.4506989-2.8645935
				c0.4416962-0.9738007,0.8391953-1.9618988,1.1930008-2.9649963c0.1723938-0.5027008,0.3404007-1.0072021,0.4715042-1.5205994
				c0.1578903-0.51091,0.3340912-1,0.9412918-1.4605103c0.3959045,0.6121979,0.4310989,1.2108002,0.2987061,1.7557983
				c-0.1075058,0.5548096-0.2527008,1.0980988-0.4035034,1.6406097c-0.3262024,1.0746002-0.6931992,2.1403961-1.1725998,3.1511993
				c-0.468605,1.0157013-0.9738922,2.0124969-1.5398941,2.9734955c-0.57341,0.9627991-1.1694107,1.8851013-1.8521042,2.8063049
				l0.1302948-0.3491058c-0.1372986,1.7920074-0.3099976,3.5812988-0.4182968,5.3753967l-0.3348007,5.3814087
				c-0.1218033,1.7930908-0.2310944,3.587204-0.4033966,5.3764954
				C120.4085541,166.0367126,120.4180527,167.8396149,119.5282516,169.5760193z"/>
		</g>
		<g>
			<path class="st6" d="M118.2299576,189.0219116c0.5560989,2.3184967,0.3184967,4.5930023,0.1853943,6.8726959
				c-0.1514969,2.2811127-0.3695984,4.5529022-0.7080994,6.8412018c-0.2867966,2.2767029-1.1573944,4.7566986-2.9476013,6.4977112
				c-0.8726959,0.8773956-1.9321976,1.5546875-3.0560989,2.0010986c-0.5587006,0.2281952-1.1380005,0.4064941-1.7213898,0.5218964
				c-0.2922058,0.0596924-0.5827103,0.1248016-0.8768082,0.1557922c-0.2909012,0.0435028-0.6072998-0.0077972-0.9686966-0.4645996
				c0.1978989-0.563797,0.4407959-0.7218933,0.709198-0.7852936c0.268898-0.0597992,0.5263062-0.1515045,0.7847977-0.236496
				c0.524704-0.1491089,1.0202026-0.3587036,1.521904-0.5407104c0.9866028-0.401886,1.9172974-0.91539,2.6921997-1.6139984
				c0.7714005-0.7000885,1.3788986-1.5775909,1.7387009-2.5764008c0.3863983-0.9888,0.5373001-2.0647888,0.713295-3.1711884
				c0.3142014-2.2205048,0.5145035-4.4878082,0.7532043-6.7445984
				C117.300354,193.5194092,117.3905563,191.2501221,118.2299576,189.0219116z"/>
		</g>
		<g>
			<path class="st6" d="M91.854454,111.1064148c1.2695007,0.1639023,2.2322006,0.6446991,3.2601013,1.1078033
				c1.0226974,0.4502945,2.0681992,0.8533936,3.1163025,1.2520981c2.1072998,0.7706985,4.2777939,1.4003983,6.4921951,1.8456955
				c2.2185059,0.4305038,4.4749985,0.6392059,6.7301102,0.7773056c1.1266937,0.0886002,2.2597885,0.0753937,3.3884888,0.1625977
				l1.6985092,0.046402c0.5680008,0.0111008,1.1284943-0.0331039,1.7208939,0.6362991
				c-0.5513,0.6805954-1.1343994,0.6474991-1.7099991,0.6697006c-0.5767975,0.0210953-1.1543045,0.0680008-1.7321014,0.0661011
				c-1.1556015-0.0188065-2.3125992-0.0463028-3.4656982-0.1388016c-1.152504-0.1082001-2.3054047-0.2060013-3.448204-0.3986053
				c-1.1486969-0.1422958-2.2875977-0.3512955-3.4238892-0.5753937c-2.2705078-0.444603-4.5419998-0.9582062-6.7381058-1.7439041
				c-1.096199-0.3953018-2.1796036-0.8370972-3.2103043-1.3958969
				C93.5027542,112.8878174,92.4437561,112.2773132,91.854454,111.1064148z"/>
		</g>
		<g>
			<path class="st6" d="M105.0577545,116.029213c-0.177803,0.2472-0.4368973,0.3389053-0.6504974,0.3188019
				c-0.1954041-0.0438004-0.3809052-0.1856995-0.5016022-0.3205032c-0.2668991-0.2838974-0.3961029-0.6072998-0.481102-0.9129944
				c-0.1315994-0.6185989-0.070694-1.1683044-0.0524979-1.7108994c0.0193024-0.5407028,0.0186005-1.0715027,0.0671997-1.6002045
				c0.0231018-0.2639999,0.078598-0.5222015,0.1549072-0.7752991c0.0329971-0.1276016,0.0886917-0.25,0.1364899-0.3742981
				c0.0461044-0.1221008,0.0403061-0.2681046,0.7244034-0.2276001c0.6221085,0.2859955,0.5587006,0.3865967,0.5503998,0.5116959
				c-0.0093994,0.1222-0.0013962,0.2486038-0.0202026,0.3685989c-0.0211945,0.2437057-0.0572968,0.4835052-0.1095963,0.7202072
				c-0.1008987,0.4718933-0.228302,0.9481964-0.2354965,1.4201965c-0.0011063,0.4657974,0.064003,0.9412003,0.189003,1.3067017
				l0.1385956,0.4618988C105.0482559,115.3358154,104.9678574,115.3538132,105.0577545,116.029213z"/>
		</g>
		<g>
			<path class="st6" d="M99.9626541,114.8012161c-0.5437012,0.322197-0.8013992,0.1437988-0.9703979-0.0585022
				c-0.209198-0.1794968-0.3432999-0.4319992-0.4484024-0.678299c-0.1841965-0.5159988-0.1931-1.0447998-0.1705017-1.5258026
				c0.0157013-0.4842987,0.0286026-0.9601974,0.1123047-1.4178009c0.0387955-0.2294998,0.1136017-0.4461975,0.2065048-0.6503983
				c0.0395966-0.1046982,0.1053925-0.1968994,0.1566925-0.2922974c0.0546036-0.1012039,0.0409012-0.1825027,0.7165985-0.0914001
				c0.6147079,0.2934952,0.5344009,0.413002,0.5200043,0.5115967c-0.0155029,0.1054001-0.0197983,0.2126999-0.0438004,0.3096008
				c-0.0361023,0.1984024-0.085495,0.3865051-0.1464005,0.5680008c-0.1220932,0.3620987-0.2496033,0.7253036-0.2534027,1.087204
				c-0.0011978,0.3625946,0.1073074,0.6914978,0.2467041,0.9581985c0.0607986,0.1380997,0.1100998,0.2770996,0.1740952,0.4203949
				C100.1295547,114.0944138,100.2017517,114.1862183,99.9626541,114.8012161z"/>
		</g>
		<g>
			<path class="st6" d="M121.1112518,148.0679169c-0.5793991-0.4071045-0.5815964-0.7689056-0.5816956-1.1304016
				c-0.0185013-0.363205,0.0006027-0.7232971,0.0282974-1.0827026c0.0815048-0.7167969,0.1938019-1.4313049,0.259903-2.149292
				c0.0610962-0.718399,0.0506973-1.4424133,0.077301-2.1636047c0.0116959-0.3607025,0.0478973-0.7194061,0.1021957-1.0767059
				c0.0203018-0.1791992,0.0658035-0.3564911,0.0985031-0.5346985c0.0328979-0.1781921,0.0080948-0.3609924,0.6934052-0.4878998
				c0.6568909,0.2324066,0.6039963,0.4089966,0.6085968,0.59021c0.0044022,0.1810913,0.021698,0.3633881,0.0137939,0.5435944
				c-0.0021973,0.3614044-0.0225983,0.721405-0.0672989,1.0793915c-0.0865021,0.716507-0.2098007,1.4300079-0.2615967,2.1492004
				c-0.0470047,0.7195129-0.0475998,1.4426117-0.0791016,2.1635132c-0.0289001,0.3591919-0.0662003,0.7179871-0.1411972,1.0737
				C121.8057556,147.3994141,121.7470551,147.7563171,121.1112518,148.0679169z"/>
		</g>
	</g>
	<g>
		<path class="st5" d="M140.7961578,24.7523155c-4.4553986-1.0324001-4.7306061-4.5425014-4.7429962-5.198101
			c0.0001984-2.6665993-0.5635071-5.4225998-1.9178009-8.6019001c-1.5397034-3.6148996-4.4902039-7.0293999-5.9105988-7.7494998
			c-18.2086029-9.2304993-28.6550064,7.1918998-28.6550064,7.1918998c-0.901001,1.4857006-1.7370987,3.4857998-2.6281967,5.709301
			l0.0001984-0.0014c-0.0001984,0.0008984-0.0007019,0.0021992-0.0009003,0.0030994
			c-0.2472992,0.6170998-0.4995041,1.2505989-0.7582016,1.8967991c-1.4626007,2.8837013-4.9733963,7.7174015-10.5264969,10.1553001
			c-7.1399994,3.1345005-10.4399948,10.1308022-10.2599945,12.6026993c0.1800003,2.4718018,0.6898956,3.6313019,0.6898956,3.6313019
			s-1.2298965-6.993,4.5901031-10.1663017c3.1588898-1.7222977,6.9823914-3.4780979,9.9591904-5.2188988
			c-0.2886963,0.3990002-0.5874939,0.7875004-0.8973999,1.1634007
			c-3.9953003,4.8462009-10.5793991,13.9435978-10.5682983,24.6853008
			c0.0077972,7.5854988,15.5177002,19.9924011,25.8760986,14.8969955
			c10.3582993-5.0954971,14.577301-3.7421951,23.8158035-7.5981979c9.2386017-3.855999,1.8153992-7.0452003,6.7145996-14.4818001
			c0.3751984-0.5695,0.7496033-1.1233978,1.1190033-1.6674004c-0.2980042,2.5521011,0.9980927,4.6811028,0.9980927,4.6811028
			c-1.4828949-3.7665024,1.0673981-7.7817001,1.0673981-7.7817001l-0.0014954,0.0005989
			c2.9593964-4.6724014,4.5233917-8.9720993,0.4660034-15.3964005c0.9720917,0.3234005,2.1690979,0.6222,3.6560059,1.0088005
			c4.5,1.1700001,3.2399902,7.2573013,3.2399902,7.2573013C147.5611572,32.5470161,145.716156,25.8923149,140.7961578,24.7523155z"
			/>
		<g>
			<path class="st0" d="M124.394455,47.2417145c-4.5139999-1.017498-16.4362946-1.395401-20.8588028,0.2361984
				c-1.9521942,0.7202034-7.0227966,3.3963013-8.8349991,3.9394035c-5.3414917,1.6004982-7.4263,5.1690979-7.4263,5.1690979
				s-2.3968964,2.3958015-3.1446991,7.0932007c-0.3582993,2.2504005,2.3777008,14.8278008,3.5281982,16.8652
				c1.1505051,2.0373993,6.5578003,8.3759995,6.5578003,8.3759995s-0.115097,0.8861008,0.1150055,4.7346039
				c0.2300949,3.8483963-3.6816025,5.0557938-0.6903,11.620697c2.3342972,5.1231003,8.2835999,2.6034012,9.5431976,3.0774994
				c1.4126968,0.531601,4.7064972,1.101799,4.7064972,1.101799c11.1763,3.5742035,25.7352066,2.9100037,31.5401077,0.2742004
				c7.4781952-3.3956985,2.5084991-8.7916031,2.2783966-12.1873016s0.2976074,1.7409058,0.842392-3.2261963
				c0.1789093-1.6310043,0.75-6.4040985,0.2898102-8.0642014c0,0,4.3359985-4.8009033,4.3359985-8.6493988
				c0-3.8484039-5.8094025-18.2060013-10.5077972-24.0534019C134.8499603,51.2854156,129.5104523,48.3948135,124.394455,47.2417145z
				"/>
			<g>
				<path class="st1" d="M141.2809601,61.7438164c1.1679993,0.9316978,1.8032074,2.1534996,2.4188995,3.3763008
					c0.6310883,1.2173004,1.2041931,2.4652939,1.7326965,3.7350006c0.5419006,1.2636948,1.0202026,2.5587997,1.4389038,3.884697
					c0.4026947,1.3218002,0.8274994,2.6884995,0.8327942,4.1885986c0.0149994,1.4672012-0.2890015,2.896904-0.815506,4.2384033
					c-0.5269928,1.3394012-1.2793884,2.6106949-2.2928009,3.6715012c-1.0109863,1.0550995-2.2679901,1.9136963-3.664093,2.3840942
					c-0.3363037,0.1534042-0.7033997,0.2058029-1.0572968,0.2966003c-0.3538971,0.0984039-0.7145996,0.1448059-1.0772095,0.1730042
					c-0.7112885,0.1158981-1.4707947,0.1179962-2.1283875-0.5445023c0.7038879-0.6884003,1.3127899-0.6131973,1.9473877-0.7490005
					c0.3162994-0.043396,0.6278076-0.1025009,0.9264069-0.2094955c0.2982941-0.1027069,0.6134033-0.154007,0.8950958-0.2966003
					c1.1653137-0.4595032,2.2385101-1.1466064,3.1166992-2.0569c1.762207-1.7966003,2.8672028-4.3652039,2.8809967-6.896904
					c-0.0210876-1.2353973-0.4115906-2.5158005-0.8391876-3.7770004c-0.4414063-1.2600021-0.9567108-2.5055008-1.4836121-3.7481995
					l-1.6208954-3.7205963C141.937561,64.4543152,141.3696594,63.2303162,141.2809601,61.7438164z"/>
			</g>
			<g>
				<path class="st1" d="M96.4090576,108.0646133c0.5161972-0.0383987,0.9017944-0.0918961,1.3082962-0.1062012
					c0.3989029-0.0197983,0.7876053,0.0274048,1.1912994,0.012001c0.802002-0.0185013,1.6182022-0.0979996,2.4372025-0.2083969
					c1.6450958-0.2113037,3.2161026-0.6572037,4.8345032-1.2444992c1.6035995-0.5842056,3.1969986-1.2755051,4.9634933-1.6779022
					c0.8817062-0.1777039,1.8181-0.3279037,2.7889023-0.1557999c0.2405014,0.0149002,0.4799042,0.0906982,0.7158966,0.1672974
					c0.2379074,0.0688019,0.4716034,0.145401,0.6893005,0.2758026c0.2088013,0.1352997,0.4717026,0.1848984,0.6158066,0.4150009
					c0.1526947,0.2120972,0.2511978,0.4925003,0.2021942,0.8660965c-0.783699,0.2582016-0.9855957,0.0348053-1.3455963-0.0862961
					c-0.1593018-0.0812988-0.3388977-0.1166992-0.519104-0.1473007c-0.1778946-0.0346985-0.3499985-0.0838013-0.5408936-0.0838013
					c-0.7324066-0.0755005-1.5253067,0.0065994-2.3163071,0.1651993c-1.5952988,0.2978973-3.2025986,0.882103-4.8215942,1.4545975
					c-1.5945053,0.5940018-3.3021011,1.2290039-5.0624008,1.4700012c-0.8758011,0.1380005-1.7751999,0.2052002-2.6871033,0.1262054
					c-0.4529953-0.0391998-0.9191971-0.0824051-1.3619995-0.2617035
					C97.0745544,108.8541183,96.6098557,108.5798111,96.4090576,108.0646133z"/>
			</g>
			<g>
				<path class="st1" d="M103.1835556,108.3536148c0.8516083-0.3610001,1.5153961-0.1901016,2.1896057-0.0205002
					c0.6777954,0.1507034,1.3475952,0.3267975,2.0137939,0.5182037c1.3356018,0.3695984,2.6666031,0.7650986,4.0192032,1.072197
					c1.3550949,0.2957001,2.7248001,0.5138016,4.0930939,0.7140961c0.6819992,0.1158066,1.3672028,0.2024002,2.0468063,0.3280029
					l1.0199966,0.1885986c0.3418961,0.0566025,0.6853027,0.0573044,0.9621964,0.7693024
					c-0.4166946,0.6314011-0.7668991,0.5514984-1.1185989,0.5273972c-0.3534012-0.0192947-0.707489-0.0337982-1.0572968-0.079895
					c-0.7048035-0.0596008-1.3993988-0.1878052-2.0940018-0.3078003c-1.3851013-0.267601-2.7581024-0.5828018-4.1277008-0.9011002
					c-1.3734894-0.3001022-2.7565994-0.5674057-4.1170959-0.9272995c-0.6813965-0.1752014-1.3566055-0.3750992-2.0183029-0.6194
					C104.330162,109.3895111,103.6582565,109.1519165,103.1835556,108.3536148z"/>
			</g>
			<g>
				<path class="st1" d="M141.874649,97.0092163c0.1314087,0.7980957-0.3425903,1.1911011-0.742691,1.4958954
					c-0.4092102,0.3280029-0.8544006,0.5914001-1.3090973,0.8202057c-0.9222107,0.4354935-1.8726044,0.7640991-2.8158112,1.0825958
					c-0.9414978,0.3238983-1.8737946,0.6694031-2.825592,0.9513016c-0.4766998,0.1334-0.9586029,0.2530975-1.4463959,0.3367004
					c-0.2428131,0.046196-0.4910126,0.0678024-0.7359009,0.1018982c-0.2444,0.0337982-0.4804077,0.1248016-0.8526001-0.4832993
					c0.1044006-0.7114029,0.3450012-0.7237015,0.577301-0.7932968c0.2315979-0.0692062,0.4599915-0.1511002,0.6938934-0.2080994
					c0.4634094-0.1315002,0.9244995-0.2625046,1.3952942-0.3600998c0.9345093-0.2151031,1.8740082-0.4230042,2.7743073-0.7424011
					c0.8988037-0.3230057,1.7565918-0.7369995,2.5771942-1.1773987l1.2245026-0.6397018
					C140.7893524,97.1477127,141.1190491,96.9644165,141.874649,97.0092163z"/>
			</g>
		</g>
	</g>
	<g>
		<path class="st2" d="M114.8022537,33.3835144c5.6610031,0,8.1106033,3.9383011,8.5447998,5.726799
			c0.4341049,1.7886009-0.0524979,8.1314011-0.0524979,8.1314011s0.1760025,3.2355995-2.8378983,4.8023987
			c-1.1304932,0.5876999-3.2348022,0.3594017-4.4183044,0.2070999c-9.950798-1.2806969-10.2355957-4.764698-10.2355957-4.764698
			s-0.0255966-9.7017021,0-10.9778023C105.8465576,34.3241158,110.9747543,33.3835144,114.8022537,33.3835144z"/>
		<path class="st2" d="M116.6537552,2.9100146c-10.814003,0.589-16.1532974,7.7654996-15.4448013,15.0611992
			c0.4930038,5.0767994,3.5315018,16.283699,4.3660049,18.1711006c0.8343964,1.8874016,8.0906982,5.0397987,10.3133926,6.3903999
			c1.4730072,0.8950996,5.8618088,1.9155998,6.9444046,1.8567009c1.0825958-0.0590019,3.8064041-0.085701,4.7902985-1.4874001
			c1.2703018-1.8097,4.1953964-6.6888008,4.8774948-8.6345024c1.3541107-3.862299,2.0268097-5.327898,1.3074036-9.5988979
			c-0.0912018-0.5412998-0.5220032-2.3748016-0.5277863-2.9063015c-0.008606-0.7930984,0.5177917-2.0769997,0.6915894-2.7989998
			c0.2359924-0.980299,0.2359924-1.4703999-0.1273041-3.4317999C132.5091553,8.3213148,127.4677582,2.3209145,116.6537552,2.9100146
			z"/>
		<path class="st5" d="M133.0564575,12.5845146c-1.4327087,3.9144001-8.3628006,1.9933004-8.3628006,1.9933004
			c4.0251999-3.8264008,3.4309006-6.1653004,3.4309006-6.1653004c-3.3242035,7.1714001-11.5707016,5.6751995-11.5707016,5.6751995
			c5.4823074-2.1753998,4.8481979-5.0553999,4.8481979-5.0553999c-3.7611008,4.5769005-14.3965988,9.1907997-14.3965988,9.1907997
			s0.0028992,9.9347-0.961998,11.7524014c-0.2806015,0.5285988-2.5386047-4.4484005-2.5386047-4.4484005l-6.0147934-0.8584995
			c0,0-1.8270035-3.4646015-1.0403061-7.3341007c0,0,0.1714096-6.1871996,6.0930023-10.3225002
			c0,0,3.6743011-5.9772997,12.6288986-6.9059997C125.6353531-0.9791854,135.2893524,6.4835148,133.0564575,12.5845146z"/>
		<g>
			<path class="st2" d="M105.3422546,33.7086143c0,0,1.1820984-3.6651001-1.7829971-9.8962002
				c-1.0686035-2.2454987-4.1327057-2.2384987-5.7170944-0.3101997c-1.5843048,1.9281998,2.6611938,7.7385006,2.6611938,7.7385006
				S101.3772583,35.7133141,105.3422546,33.7086143z"/>
			<g>
				<path class="st4" d="M104.0911636,29.9755154c-0.625-0.5512009-0.788208-1.1872005-1.0697098-1.8025017
					c-0.2559967-0.6173992-0.4996948-1.2392998-0.8142014-1.8195c-0.1613007-0.2869987-0.3306961-0.5678997-0.5338974-0.8205986
					l-0.1563034-0.1832008l-0.0777969-0.0916996l-0.0380936-0.0447006c0.0032959,0.0095997,0.0090027,0.0186005,0.0167923,0.024601
					c0.0082092,0.0046997-0.1697922-0.0405998-0.2951965-0.0542011c-0.2818985-0.0361996-0.5903015-0.0485992-0.888504-0.0695
					c-0.3075943,0.0045013-0.5713959-0.0862999-0.9533005,0.0554008c-0.0076981-0.4659004,0.4725037-0.7597008,0.8253021-0.8703003
					c0.384201-0.1185989,0.774498-0.1380005,1.1739044-0.0608006c0.210495,0.0477009,0.3840942,0.0680008,0.6791,0.269001
					c0.0411987,0.0331993,0.0802994,0.0695,0.1170959,0.1061993l0.0440979,0.0552998l0.0860062,0.1088009l0.171196,0.2178001
					c0.2088013,0.3013,0.4223022,0.5953999,0.6076965,0.9055996c0.3771057,0.6151009,0.7049026,1.2546005,0.9430008,1.9256992
					C104.1390533,28.5013142,104.3932571,29.184515,104.0911636,29.9755154z"/>
			</g>
			<g>
				<path class="st4" d="M103.2188568,27.3690147c-0.2796936,0.5762997-0.6240005,0.7276001-0.8663025,0.9958
					c-0.2325974,0.2588997-0.3437958,0.4444008-0.2872009,0.7607994c0.0566025,0.3169003,0.305603,0.6386013,0.6222,0.8823013
					c0.3100052,0.2477989,0.6773987,0.4771996,0.9929047,0.726099l0.2838974,0.2238007l-0.0435028,0.1800003
					c-0.0867996,0.3590984-0.2165985,0.7154999-0.4832993,1.0636005c-0.2219009-0.3782005-0.3067017-0.7480011-0.3485947-1.1150017
					l0.2402039,0.4034996c-0.4979095-0.156599-0.9003067-0.4289989-1.266304-0.7903996
					c-0.3523026-0.360199-0.7042007-0.7805004-0.8740997-1.3514996c-0.0888062-0.272501-0.1035995-0.6314011-0.002594-0.9411011
					c0.1081924-0.3087997,0.2922897-0.5737991,0.512291-0.7533989
					C102.1381607,27.3159142,102.6325531,27.0617142,103.2188568,27.3690147z"/>
			</g>
		</g>
		<g>
			<path class="st4" d="M125.7533569,17.5921154c-0.0485992,1.2929001-0.4063034,2.5696983-0.6210022,3.7199001
				c-0.0493011,1.0924988,0.3542023,2.3821983,0.799202,3.4660988c0.2080002,0.5370007,0.6953964,0.9355011,1.0423965,1.5976009
				c0.325798,0.6780987,0.3654022,1.4144001,0.2453003,2.1041985c-0.1188965,0.6890011-0.4235001,1.3747005-1.0252991,1.8721008
				c-0.3000031,0.2443008-0.7370987,0.3908997-1.1319962,0.3041c-0.3917999-0.0860996-0.6857986-0.3372002-0.8530045-0.6413002
				c0.7078018,0.1455994,1.1546021,0.0958996,1.5187988-0.2329998c0.3736038-0.3348999,0.5849991-0.8973999,0.6945038-1.4447002
				c0.0998001-0.5548,0.0695953-1.1471004-0.1452026-1.6264992c-0.2206955-0.4801006-0.6902008-0.9763012-1.0151978-1.6025009
				c-0.3102036-0.6173-0.5028992-1.219799-0.6813049-1.8596992c-0.1574936-0.6387997-0.3093872-1.2957001-0.2167969-2.028801
				C124.6578522,19.8807144,125.0783539,18.7324142,125.7533569,17.5921154z"/>
		</g>
		<g>
			<path class="st4" d="M128.6489563,33.1256142c-0.3885956,1.0291023-1.4115982,1.4476013-2.352005,1.7098999
				c-0.9881973,0.2499008-1.9921951,0.1497993-2.9291992,0.0330009c-0.9487-0.1333008-1.9169006-0.2877007-2.8157959-0.6745987
				c-0.8751984-0.3990021-1.7416-0.9822006-2.1464996-1.9284019c0.9382019,0.328701,1.7106018,0.6688995,2.5354004,0.9808006
				c0.8087997,0.3220978,1.6557007,0.5984001,2.5391998,0.6885986c0.8921967,0.0880013,1.7667999,0.0746994,2.5824966-0.1170006
				C126.9164581,33.6597137,127.6224518,33.2880135,128.6489563,33.1256142z"/>
		</g>
		<path class="st4" d="M121.7701645,36.5932159c0,0,2.6832886,1.5001984,4.8775864,0.2762985
			c0,0-0.9865875,1.5266991-2.3141937,1.6918983C122.3460541,38.8087158,121.7701645,36.5932159,121.7701645,36.5932159z"/>
		<g>
			<path class="st4" d="M121.4020538,17.4227142c-0.9734955-0.0951004-1.8324966-0.0221004-2.7047958,0.0111008
				c-0.8609009,0.0411987-1.7000961,0.0938988-2.5067062,0.2022991c-0.8069,0.1088009-1.5792999,0.2525005-2.3203888,0.5097008
				c-0.7483063,0.2530003-1.452507,0.6380005-2.2249985,1.2926006c-0.0051117-1.0102005,0.5999985-2.0052013,1.4355927-2.6527004
				c0.8406982-0.6553001,1.8611984-1.0056009,2.8591003-1.1333008c1.0038986-0.1304998,2.0048981-0.0386,2.9531937,0.2265005
				C119.8153534,16.1630154,120.8014526,16.5740147,121.4020538,17.4227142z"/>
		</g>
		<g>
			<path class="st4" d="M127.6879578,17.4077148c0.4196014-0.6737003,1.1700897-1.0135994,1.9042053-1.1604004
				c0.7471924-0.1355,1.5820923-0.0559006,2.3416901,0.3491001c0.7637024,0.3911991,1.365799,1.1721001,1.5400085,1.9794006
				c0.185791,0.8132-0.0133057,1.5879993-0.4232025,2.2203999c-0.4226074-0.6589012-0.6694031-1.2157001-1.0230103-1.6026001
				c-0.335495-0.3896008-0.6520996-0.6219997-1.0401917-0.8360996c-0.3881073-0.2105999-0.865509-0.3882008-1.4139099-0.5431004
				C129.0133514,17.6556149,128.4391632,17.5063152,127.6879578,17.4077148z"/>
		</g>
		<path class="st5" d="M115.9484558,22.175415c0.077301,1.1360989,0.8977051,2.0201988,1.8324966,1.974699
			c0.9347992-0.0454998,1.6299057-1.0033989,1.5526047-2.1394997c-0.0773926-1.1360989-0.8978043-2.0202007-1.8326035-1.974699
			C116.5661621,20.0814152,115.8710556,21.0393143,115.9484558,22.175415z"/>
		<path class="st5" d="M127.3223572,22.4966145c-0.1078033,1.1343002,0.5615005,2.1053009,1.4947968,2.1686993
			c0.9333038,0.0634003,1.777298-0.8046989,1.8850098-1.9390984c0.1077881-1.1343002-0.5614166-2.1053009-1.4947052-2.1687012
			C128.2741547,20.4941139,127.4301605,21.362215,127.3223572,22.4966145z"/>
		<g>
			<path class="st1" d="M110.8718567,54.3045158c-1.0026932,0.3150978-1.922905,0.0677986-2.7876053-0.3000031
				c-0.8717957-0.3502998-1.7449951-0.8209991-2.4511948-1.5632973c-0.7166977-0.7201004-1.2056046-1.776001-1.197998-2.8369026
				c0.0119934-1.0662994,0.339798-2.011097,0.9341965-2.8795967c0.1772995-0.2591019,0.5310974-0.3253021,0.7901993-0.1481018
				c0.1416016,0.0969009,0.2256012,0.2466011,0.2437057,0.4047012l0.0097961,0.0895004
				c0.0172043,0.1565971,0.1264954,0.5201988,0.2899017,0.7682991c0.0697937,0.1399002,0.1653976,0.2705002,0.2686996,0.398201
				c0.091301,0.1334991,0.2000961,0.2575989,0.3248978,0.3727989c0.4515991,0.4934006,1.052597,0.8703995,1.6507034,1.232399
				c1.2442932,0.6819992,2.6572952,1.0812988,4.0642929,1.4435005c1.4232025,0.3340988,2.8786011,0.5614014,4.3451004,0.7429008
				c0.7366104,0.0673981,1.4647064,0.2085991,2.2076111,0.2459984c0.7420883,0.0531998,1.47789,0.0573006,2.2060013,0.7103004
				c-0.7689133,0.5754013-1.5301132,0.5018997-2.2849121,0.4775009c-0.756897-0.0045013-1.5144958-0.0902023-2.2711945-0.1487007
				c-1.5149002-0.1240005-3.0223999-0.3941002-4.5167007-0.7480011c-1.4865036-0.3903999-2.9689026-0.8714981-4.3473053-1.6632004
				c-0.6753998-0.4207001-1.3541946-0.8569984-1.915596-1.4783974c-0.148201-0.1436996-0.2840042-0.3025017-0.4048996-0.4794998
				c-0.1295013-0.1669006-0.2513962-0.3408012-0.3502045-0.5376015c-0.2140961-0.3949013-0.3791885-0.7525978-0.4225998-1.3431015
				l1.043602,0.3460007c-0.3995972,0.6126022-0.678299,1.4383011-0.6417999,2.1655998
				c0.0363998,0.741703,0.3814011,1.4028015,0.9138031,1.9575996c0.5523987,0.5375023,1.2411957,1.0026016,2.0036011,1.3712006
				C109.3469543,53.2633133,110.1409531,53.5500145,110.8718567,54.3045158z"/>
		</g>
		<path class="st4" d="M123.4611588,44.3918152c0,0-2.3147049,0.2333984-4.6675034-0.6222992
			c-2.3527985-0.8557014-6.0136032-3.0090027-6.0136032-3.0090027s5.3404999,7.4603996,10.1769028,8.4277
			c0.4842987,0.0969009,0.3376007-1.9464989,0.3376007-1.9464989L123.4611588,44.3918152z"/>
	</g>
	<g>
		<path class="st0" d="M99.7124557,49.7482147c-1.4087982,0.4463997-14.1722946,4.4807014-18.0748978,7.4975014
			c-4.0268021,3.1126976-8.4760056,8.1316948-8.4760056,8.1316948s-18.6379967,13.6985016-20.4787941,17.622406
			c-1.8407021,3.9238968-1.2272034,11.6181946,1.2271996,13.7309952c2.4543991,2.1128998,6.1359978,1.3582993,7.8233986,0.6036987
			c1.6873016-0.7545929,27.2348061-14.5485992,27.2348061-14.5485992s3.3416901-1.9113998,4.3323898-2.7152939
			c2.3337021-1.8934021,5.9393005-7.6350021,6.8880005-16.9947014
			C101.2439575,52.6625137,99.7124557,49.7482147,99.7124557,49.7482147z"/>
		<g>
			<path class="st1" d="M102.1638565,68.4335175c0.1940994,1.7723007-0.7518997,3.2763977-1.6324997,4.6259995
				c-0.9108047,1.3683014-1.9889984,2.5973969-3.1119003,3.7658997c-1.1326981,1.1612015-2.3388977,2.2377014-3.5602951,3.2897949
				c-1.2369995,1.0404053-2.4762039,2.0489044-3.7874069,3.0253067l-0.6879959-1.1099014
				c2.2651978-1.2532043,4.4592972-2.6869049,6.5877991-4.1547012c1.0533981-0.7517014,2.096199-1.5142975,3.0806046-2.3297043
				c0.4942932-0.4043961,0.9736938-0.823494,1.4208908-1.2650986c0.4378052-0.4645004,0.8703995-0.8471985,1.6908035-1.0935974
				c0.1223068,0.8656998-0.2910995,1.4955978-0.7584991,1.979599c-0.4595032,0.5072021-0.9443054,0.9801025-1.4411926,1.4349976
				c-1.0041122,0.8976059-2.0635071,1.7119064-3.1594086,2.465004c-2.1793976,1.5306015-4.4692001,2.8395004-6.8018036,4.1160965
				c-0.3167877,0.1733017-0.7141953,0.057106-0.8874969-0.259697c-0.1610031-0.2941971-0.072197-0.6577988,0.1949997-0.8470993
				l0.0045013-0.0031052c2.5530014-1.8123932,4.9322052-3.9504929,7.0747986-6.2329941
				c1.078598-1.1384048,2.0898972-2.3324051,3.016098-3.5734024c0.4775009-0.6123962,0.8816986-1.2683029,1.3027039-1.9121017
				C101.1441574,69.713913,101.585556,69.087616,102.1638565,68.4335175z"/>
		</g>
		<line class="st7" x1="85.2278519" y1="84.548111" x2="61.7333565" y2="97.3345108"/>
		<path class="st2" d="M22.5363579,115.879715c2.6078987,3.3956985,6.0592995,2.5655975,7.5931988,2.0373993
			c0.5880013-0.2012024,3.2213993-1.8236008,6.2382984-3.7478027c0.9140015-1.5783997,1.6618004-4.6910934-0.9842987-7.6339951
			c-4.4799995-4.982399-8.411396-2.6788025-8.411396-2.6788025c-2.0965023,1.0564041-3.4387035,1.8488007-4.1677036,2.2616043
			C22.8044567,106.1181183,19.9285564,112.4841156,22.5363579,115.879715z"/>
		<path class="st0" d="M26.9721603,103.8439178c0,0.0125961,0,0.0125961,0,0.0125961s0.7030964,2.1884003,1.7768974,3.4710999
			c1.0737,1.2827988,6.1102982,6.9045029,7.6187973,6.8416977h0.0128021
			c1.4957008-0.1007004,5.5606995,1.0061035,7.7082977-1.6349945c2.1477013-2.6409988,5.5223007-6.4769058,5.5223007-6.4769058
			v-0.0124969c2.3794022-1.3057022,11.4574013-6.8348007,14.1161003-11.3622971
			c5.3181-9.0174026-6.9062996-15.061203-9.9743004-12.8603058c0,0-5.598896,4.3012009-12.2718964,9.7091064
			c0,0-0.0127029,0-0.0255013,0.0125961c-0.6519012,0.3773041-9.3958015,5.8607025-11.4027004,6.9549026
			C28.0587578,99.5930176,26.9337578,103.5798111,26.9721603,103.8439178z"/>
		<g>
			<path class="st2" d="M0.8430578,116.6217117c1.7001998,1.370903,5.3818002,0.3647003,5.7396998,0.2516022h-0.0383
				c0.0639-0.0125961,0.0767035-0.0125961,0.0511003,0l1.8918996,0.1509018l-3.1829996,4.665802l-1.8536,4.2761002
				c0,0,0.0640001,4.9426041,0.3963034,6.0492935c0.2428968,0.8050079,1.8407967,0.7420959,2.7994964,0.0252075
				c0.3196001,0.8804016,0.8566003,2.2637939,1.125,2.6788025c0.3707004,0.5659943,1.5084004,1.4211884,2.7484002,0
				c0.1278-0.1509094,0.2301035-0.3144073,0.3067999-0.5031128c0.5753031,0.64151,1.6106997,1.7608032,1.9431,1.8991089
				c0.4602032,0.2012024,2.0197001-0.4150085,2.5182037-1.58461c0.485796-1.169693-1.1121035-3.4082947-1.1121035-3.4082947
				c0.2557001-0.6790924,0.7797995-2.3392029,0.7797995-2.3392029l0.5623999-0.7042999l0.1662006,2.6159058l2.2754993,2.7794952
				c0,0,2.0837002,0.540802,2.4799004,0.6412964c0.3963032,0.0881042,2.1219997-0.2011871,1.7768993-1.5090942
				c-0.3451004-1.3206024-2.2754002-1.4714966-2.2754002-1.4714966l-0.8436985-1.5595093l1.5595036-3.3830948
				c0,0,1.8023949,0.4905014,3.9116955-2.1505966c3.1319008-0.540802,6.0209999-2.4524002,8.155798-7.5837021
				c1.0993004-2.6409988-5.650198-9.2815018-8.2835979-10.2372971c-0.9715004-0.3647003-1.6618958-0.113205-4.4230003,0.4778976
				c-1.5723,0.3270035-7.9383993,3.7415009-7.9383993,3.7415009l-4.7937999,1.7921982l-6.8133998,1.7229996
				C0.4724578,113.955513-0.8059422,115.2886124,0.8430578,116.6217117z"/>
			<path class="st3" d="M8.4875574,117.0242157l3.1191006,0.2388992l2.5310993,0.9056015
				c0.882,0.3395004,1.9047003,0.3520966,2.8123007,0.2388992"/>
			<g>
				<path class="st4" d="M6.6467576,132.0406189c0.0323-0.6316986,0.0380001-0.8937073,0.0668001-1.1107025
					c0.027-0.304306,0.0415001-0.686203,0.0338001-1.0406952c-0.0008001-0.3625031-0.0174003-0.7331085-0.0414-1.1065063
					c-0.0237002-0.3686981-0.0641003-0.7619934-0.1270003-1.1053009l-0.0569997-0.311203l0.1499996-0.2066956
					c0.7375002-1.0150986,1.3973002-2.0820007,2.0394998-3.1605988l0.052-0.0874023l0.1283998-0.0988998
					c0.4500008-0.3464966,0.9055004-0.6850967,1.3840008-0.9914017c0.2361994-0.1573944,0.4790993-0.3054962,0.7263994-0.4472961
					c0.2613001-0.1222,0.396904-0.4208984,1.0774002,0.0456009c0.2180996,0.7957993-0.1085997,0.8261948-0.3095999,1.0329971
					c-0.2151003,0.1872025-0.4344997,0.368103-0.6605997,0.5398026c-0.4461002,0.3518982-0.9152002,0.6712952-1.3899002,0.9831009
					l0.1801996-0.1859055c-0.7468996,1.0089035-1.4761,2.0297012-2.1276999,3.1021042l0.0929999-0.517601
					c0.1090002,0.4364014,0.1890006,0.8335037,0.2522998,1.2582016c0.0592003,0.4203949,0.0866003,0.8482971,0.0712004,1.2839966
					c-0.0232,0.4431-0.0816002,0.8603973-0.23,1.3352966C7.7881613,131.8143158,7.2569575,132.2065125,6.6467576,132.0406189z"/>
			</g>
			<g>
				<path class="st4" d="M10.8268576,134.2164154c-0.2884998-0.4844055-0.3866968-0.7299042-0.4077997-1.0220032
					c-0.0098-0.2828979-0.0643005-0.5753021-0.1080008-0.8690948c-0.0494995-0.2945099-0.1142998-0.5940094-0.1794996-0.8953094
					c-0.0690002-0.2945862-0.1463966-0.6171875-0.2355003-0.8816986l-0.1171999-0.3479004l0.1579008-0.2462921
					c0.2500992-0.3903046,0.4824028-0.8054962,0.7072992-1.2106018c0.1023006-0.2073975,0.2042999-0.4163055,0.2914-0.6197968
					c0.0781002-0.1819,0.1668005-0.4626999,0.1564999-0.4741058l-0.0846996-0.0927963l0.2672997-0.3060989
					c0.4389-0.5023041,0.8660002-1.0159988,1.3360004-1.4888c0.2329998-0.2383041,0.4749002-0.4680023,0.7261-0.6888046
					l0.3795033-0.3288956c0.131897-0.1044998,0.333497-0.1423035,0.8050966,0.0774994
					c0.2413998,0.4608002,0.2130003,0.6640015,0.1148005,0.8005981l-0.3108969,0.3943024
					c-0.2089033,0.2612-0.4272032,0.5134964-0.6544037,0.7574005c-0.4503994,0.4915009-0.9435959,0.9418945-1.4250994,1.4037018
					l0.1823997-0.3986053c-0.0914001,0.4615021-0.2075005,0.6197052-0.3190002,0.8749084
					c-0.1086998,0.2328949-0.2224998,0.4508972-0.3373003,0.6695862l-0.6682997,1.3071136l0.0407038-0.593811
					c0.1560001,0.3598022,0.2756968,0.6797028,0.376296,1.0337067c0.0993004,0.3484955,0.1761999,0.706192,0.2044001,1.0782928
					c0.0325003,0.3717041,0.0222006,0.7518005-0.0393,1.1383972
					C11.6092577,133.6629181,11.3774576,134.0813141,10.8268576,134.2164154z"/>
			</g>
			<g>
				<path class="st4" d="M17.1929569,125.9913177c0.0444012,0.4175949-0.0621986,0.7141953-0.2059994,0.9810944
					c-0.1641998,0.2505035-0.3339996,0.4962997-0.5112,0.7364044c-0.3525963,0.4815979-0.7369003,0.9375916-1.1225004,1.3927917
					l0.0855999-0.157196c-0.2840996,0.7716064-0.5749998,1.5409088-0.8118,2.3283997l-0.0829992-0.4512939
					c0.3331995,0.4169006,0.5881033,0.8280029,0.8238993,1.2902985c0.2268,0.4590912,0.4118004,0.9624939,0.4566002,1.5254974
					c0.0471001,0.5554962-0.0854998,1.1871948-0.4432001,1.6656036c-0.1739998,0.2380981-0.3857994,0.4391937-0.6118994,0.5961914
					c-0.211297,0.1735992-0.4888,0.2819061-0.8909006,0.0049133c0.0131998-0.496109,0.1490002-0.6177063,0.3004999-0.7446136
					c0.1469002-0.128891,0.2601042-0.2764893,0.3474007-0.4284973c0.1844997-0.2975922,0.2447996-0.6416016,0.2233-1.0189972
					c-0.0443001-0.754303-0.4379005-1.6210022-0.9415007-2.2881927l-0.1673994-0.2218018l0.0841999-0.2299042
					c0.283-0.7720032,0.5120001-1.5619049,0.7475996-2.3497009l0.0219002-0.0731964l0.0639-0.0843048
					c0.3601999-0.4756012,0.7215004-0.9500961,1.1146002-1.3992004c0.1956997-0.2251968,0.3987007-0.4445953,0.6072998-0.6594009
					C16.5094566,126.2077179,16.7756577,126.0390167,17.1929569,125.9913177z"/>
			</g>
			<g>
				<path class="st4" d="M10.8318577,120.4345169c0.6204996,0.5021973,1.2593994,0.9191971,1.9006996,1.3361969
					c0.6454,0.4081039,1.2957001,0.8041992,1.9609003,1.1793976c0.6527996,0.3967056,1.3324995,0.7514038,1.9968996,1.148201
					c0.6728992,0.3824997,1.3491993,0.7671051,2.0109997,1.2265015c-0.7973003-0.0969009-1.5669003-0.3007965-2.3141956-0.5678024
					c-0.7458038-0.2715988-1.4699039-0.6040955-2.1605034-1.0039978c-0.6846008-0.4076996-1.349-0.8602982-1.9363003-1.4111023
					C11.7059574,121.7987137,11.1529579,121.1806183,10.8318577,120.4345169z"/>
			</g>
			<g>
				<path class="st4" d="M20.6571617,126.1925125c0.3297958-0.4281006,0.6287956-0.6612015,0.9487953-0.827095
					c0.3237-0.1434021,0.6375999-0.2893066,0.9307003-0.4580994c0.5842991-0.3397064,1.0858994-0.7356033,1.4382992-1.2356033
					l0.1924-0.2729034l0.2796001-0.0460968c0.6827011-0.1120987,1.4574013-0.3787003,2.1421013-0.7039032
					c0.6953983-0.334198,1.3423996-0.7669983,1.9165001-1.2742004c0.5777988-0.5028,1.1026039-1.056694,1.5762997-1.6508942
					c0.2600994-0.2801056,0.4647999-0.6016006,0.7050991-0.9023056c0.3038998-0.277298,0.1734009-0.7524948,1.1683006-0.7131958
					c0.5953979,0.7506027,0.1251984,1.0223999-0.0195999,1.4273987c-0.2075996,0.3816986-0.4360008,0.7537994-0.7063999,1.0967026
					c-0.5202007,0.7019958-1.1753998,1.294899-1.8689003,1.8131943c-0.6939011,0.5215073-1.4379005,0.9646072-2.2096004,1.3469009
					c-0.7800999,0.3933029-1.5457001,0.7065048-2.4596996,0.9386063l0.4717007-0.3187027
					c-0.4768009,0.8002014-1.2115974,1.3981018-1.9972,1.7437973c-0.3945007,0.1719055-0.7975998,0.3059998-1.2087002,0.3832016
					C21.5414581,126.5909119,21.0894566,126.529213,20.6571617,126.1925125z"/>
			</g>
		</g>
		<g>
			<path class="st1" d="M45.2584572,111.1204147c-0.0391006-1.1457977,0.4358978-1.998497,0.9111977-2.8462982
				c0.4622002-0.8564987,0.9605064-1.6920013,1.4808006-2.5137024c1.0329018-1.6483994,2.1375999-3.251503,3.2158012-4.8722992
				c1.0768013-1.6220016,2.1194992-3.2733994,3.3094978-4.8307037c1.2203026-1.5051956,2.5530014-3.0794983,4.4350014-3.8971939
				c-1.1245956,1.6470947-2.1773987,3.1794968-3.3210983,4.7350006c-1.1278,1.5519943-2.2893028,3.0921936-3.3664017,4.6946945
				c-1.0600967,1.6143036-2.0420952,3.2797012-3.0549011,4.9256058c-0.5003967,0.8266983-1.0135994,1.6455002-1.5535965,2.4487
				C46.7928581,109.7791138,46.2715569,110.5899124,45.2584572,111.1204147z"/>
		</g>
		<g>
			<path class="st1" d="M79.9930573,58.5975151c-0.1798935,1.1622009-0.8365021,1.9453011-1.5024033,2.7052994
				c-0.6543961,0.7741013-1.3541946,1.5102997-2.093399,2.2104988c-0.7312012,0.7087021-1.5062027,1.3768997-2.3250961,2.0052032
				c-0.4354019,0.3289948-0.8133011,0.5903015-0.9894028,0.8423996c-0.0859985,0.1269989-0.1110001,0.2193985-0.1060028,0.2588959
				c0.0034103,0.0387039,0.0239029,0.1199036,0.1501007,0.2206039c0.5334015,0.4027023,1.5602036,0.5401993,2.463501,0.528801
				c0.9365997-0.0150986,1.8810043-0.1843033,2.8104019-0.4039001c0.9328995-0.216301,1.8408966-0.5407028,2.7436981-0.8832016
				c0.4473038-0.1820984,0.8992004-0.3580017,1.341301-0.5603027c0.4436035-0.2074966,0.8355026-0.472496,1.6118011-0.1444016
				c-0.0886993,0.8346024-0.5698013,1.0610046-1.0195007,1.3085022c-0.4524994,0.2490997-0.9088974,0.4968033-1.3848953,0.7046051
				c-0.9442062,0.4342957-1.9437027,0.7481995-2.9639969,0.9825974c-1.0216064,0.232399-2.0739059,0.3501968-3.1430054,0.3304977
				c-0.5351028-0.0100021-1.0752029-0.0524979-1.6219025-0.1681976c-0.5444031-0.1260986-1.1059036-0.2854004-1.6510925-0.7215042
				c-0.2673111-0.204895-0.5511093-0.5711975-0.6114044-1.0311966c-0.0608063-0.4636993,0.1144943-0.8638,0.3016968-1.149704
				c0.1944962-0.2887955,0.4188995-0.502594,0.6457977-0.6875992l0.5852051-0.4766006
				c0.7458954-0.6241951,1.4561996-1.3048973,2.1675949-1.9866982l2.1085052-2.0886002
				C78.2071609,59.683815,78.8843536,58.9702148,79.9930573,58.5975151z"/>
		</g>
	</g>
</g>
</svg>
